<svg width="48" height="48" viewBox="0 0 48 48" fill="none" xmlns="http://www.w3.org/2000/svg">
<rect x="0.5" y="0.5" width="47" height="47" rx="7.5" fill="#F2F9F9"/>
<rect x="0.5" y="0.5" width="47" height="47" rx="7.5" stroke="#E3E8EF"/>
<path d="M23.9998 21.5V25.5M23.9998 29.5H24.0098M22.6151 16.3917L14.3902 30.5983C13.934 31.3863 13.7059 31.7803 13.7396 32.1037C13.769 32.3857 13.9168 32.642 14.1461 32.8088C14.4091 33 14.8643 33 15.7749 33H32.2246C33.1352 33 33.5904 33 33.8534 32.8088C34.0827 32.642 34.2305 32.3857 34.2599 32.1037C34.2936 31.7803 34.0655 31.3863 33.6093 30.5983L25.3844 16.3917C24.9299 15.6065 24.7026 15.214 24.4061 15.0821C24.1474 14.9671 23.8521 14.9671 23.5935 15.0821C23.2969 15.214 23.0696 15.6065 22.6151 16.3917Z" stroke="#F79009" stroke-width="2" stroke-linecap="round" stroke-linejoin="round"/>
</svg>
