<svg xmlns="http://www.w3.org/2000/svg" width="24" height="24" viewBox="0 0 24 24" fill="none">
  <g clip-path="url(#clip0_7182_32541)">
    <circle cx="12" cy="12" r="12" fill="#FFFFFF"/>
    <path d="M18.5881 8.02882H16.4651C16.2178 8.02882 15.9825 7.92308 15.8188 7.73903L14.9576 6.76991C14.8294 6.62527 14.6446 6.54297 14.4514 6.54297C14.2581 6.54297 14.0733 6.62577 13.9452 6.76991L13.2067 7.60137C12.9648 7.8732 12.6178 8.02932 12.2533 8.02932H0.63287C0.301915 8.96902 0.0861184 9.96158 0 10.9911H10.9701C11.1628 10.9911 11.3476 10.9127 11.4808 10.7741L12.5022 9.71219C12.6299 9.57952 12.8061 9.5047 12.9904 9.5047H13.0324C13.2262 9.5047 13.4104 9.5875 13.5386 9.73214L14.3993 10.7013C14.563 10.8858 14.7983 10.9911 15.0457 10.9911H24C23.9139 9.96108 23.6981 8.96852 23.3671 8.02932H18.5876L18.5881 8.02882Z" fill="black"/>
    <path d="M6.63806 17.2191C6.83083 17.2191 7.01558 17.1408 7.14876 17.0021L8.17017 15.9402C8.29784 15.8076 8.47409 15.7327 8.65834 15.7327H8.7004C8.89416 15.7327 9.07842 15.8155 9.20659 15.9597L10.0673 16.9288C10.231 17.1134 10.4663 17.2186 10.7137 17.2186H22.8484C23.303 16.2829 23.6359 15.2789 23.8342 14.2269H12.1867C11.9394 14.2269 11.704 14.1212 11.5403 13.9372L10.6796 12.968C10.5514 12.8234 10.3667 12.7411 10.1734 12.7411C9.98016 12.7411 9.7954 12.8239 9.66723 12.968L8.92871 13.7995C8.68688 14.0713 8.3399 14.2274 7.9749 14.2274H0.165161C0.363434 15.2794 0.696892 16.2834 1.15102 17.2191H6.63806Z" fill="black"/>
    <path d="M15.2467 4.79224C15.4395 4.79224 15.6242 4.71393 15.7574 4.57527L16.7788 3.51338C16.9065 3.3807 17.0827 3.30589 17.267 3.30589H17.309C17.5028 3.30589 17.6871 3.38868 17.8152 3.53333L18.6759 4.50245C18.8397 4.687 19.075 4.79224 19.3223 4.79224H21.63C19.4325 1.88238 15.9372 0 11.9997 0C8.06233 0 4.56703 1.88238 2.36951 4.79224H15.2467Z" fill="black"/>
    <path d="M10.612 20.1841H7.45617C7.20883 20.1841 6.97351 20.0784 6.80978 19.8943L5.9491 18.9252C5.82092 18.7805 5.63617 18.6982 5.4429 18.6982C5.24964 18.6982 5.06488 18.781 4.93671 18.9252L4.19819 19.7566C3.95636 20.0285 3.60938 20.1846 3.24438 20.1846H3.19531C5.39384 22.5313 8.52464 24.0002 12.0009 24.0002C15.4772 24.0002 18.6075 22.5313 20.8065 20.1846H10.612V20.1841Z" fill="black"/>
  </g>
  <defs>
    <clipPath id="clip0_7182_32541">
      <rect width="24" height="24" fill="white"/>
    </clipPath>
  </defs>
</svg>