<svg id="b" data-name="Layer 2" xmlns="http://www.w3.org/2000/svg" viewBox="0 0 60 60" width="60" height="60"><defs><style>.f{fill:#213147}</style></defs><g id="c" data-name="Layer 3"><path class="f" cx="613.44" cy="613.44" r="613.44" d="M60 30A30 30 0 0 1 30 60A30 30 0 0 1 0 30A30 30 0 0 1 60 30z"/><path class="f" d="M7.967 19.454V40.542c0 1.346 0.719 2.591 1.885 3.262l18.263 10.546a3.774 3.774 0 0 0 3.766 0l18.263 -10.546c1.165 -0.671 1.885 -1.916 1.885 -3.262V19.454c0 -1.346 -0.719 -2.591 -1.885 -3.262L31.88 5.645a3.774 3.774 0 0 0 -3.766 0L9.847 16.191c-1.165 0.671 -1.88 1.916 -1.88 3.262Z"/><path d="M33.982 34.088 31.377 41.23a0.918 0.918 0 0 0 0 0.614l4.481 12.29 5.182 -2.993L34.82 34.088c-0.141 -0.393 -0.697 -0.393 -0.839 0Zm5.223 -12.012c-0.141 -0.393 -0.697 -0.393 -0.839 0l-2.605 7.143a0.918 0.918 0 0 0 0 0.614l7.341 20.121 5.182 -2.993 -9.081 -24.885Z" style="fill:#12aaff"/><path d="M29.996 6.435c0.128 0 0.256 0.035 0.371 0.097l19.764 11.411c0.229 0.133 0.371 0.379 0.371 0.64V41.403c0 0.265 -0.141 0.508 -0.371 0.64l-19.764 11.411c-0.111 0.066 -0.243 0.097 -0.371 0.097s-0.256 -0.035 -0.371 -0.097L9.861 42.052c-0.229 -0.133 -0.371 -0.379 -0.371 -0.64V18.589c0 -0.265 0.141 -0.508 0.371 -0.64l19.764 -11.411c0.115 -0.066 0.243 -0.102 0.371 -0.102m0 -3.333c-0.702 0 -1.408 0.181 -2.039 0.547L8.197 15.057c-1.263 0.728 -2.039 2.075 -2.039 3.531v22.818c0 1.457 0.777 2.803 2.039 3.531l19.764 11.411c0.631 0.362 1.333 0.547 2.039 0.547s1.408 -0.181 2.039 -0.547l19.764 -11.411c1.263 -0.728 2.039 -2.075 2.039 -3.531V18.588c0 -1.457 -0.777 -2.803 -2.039 -3.531L32.035 3.65c-0.631 -0.366 -1.338 -0.547 -2.039 -0.547Z" style="fill:#9dcced"/><path class="f" d="m16.924 49.98 1.819 -4.979 3.66 3.041 -3.421 3.125 -2.057 -1.187z"/><path d="M28.331 16.955H23.321c-0.375 0 -0.711 0.234 -0.839 0.587L11.742 46.987l5.182 2.993L28.751 17.556c0.111 -0.291 -0.106 -0.601 -0.42 -0.601Zm8.767 0H32.088c-0.375 0 -0.711 0.234 -0.839 0.587l-12.263 33.621 5.182 2.993 13.349 -36.601c0.106 -0.291 -0.111 -0.601 -0.42 -0.601Z" style="fill:#fff"/></g></svg>