<svg width="60" height="60.04" viewBox="0 0 60 60.04" fill="none" xmlns="http://www.w3.org/2000/svg"><path fill="#fff" d="M11.457 10.299h37.046v33.693H11.457z"/><path fill-rule="evenodd" clip-rule="evenodd" d="M59.98 30.02C59.98 46.578 46.558 60 30 60S.02 46.578.02 30.02 13.442.04 30 .04s29.98 13.423 29.98 29.98ZM21.504 41.951h-5.818c-1.223 0-1.827 0-2.195-.236a1.477 1.477 0 0 1-.67-1.156c-.022-.434.28-.965.884-2.025l14.366-25.322c.611-1.075.921-1.613 1.311-1.812.42-.214.921-.214 1.34 0 .39.199.7.736 1.311 1.812l2.953 5.155.015.026c.66 1.154.995 1.739 1.141 2.353a4.374 4.374 0 0 1 0 2.047c-.147.619-.479 1.208-1.149 2.379l-7.545 13.339-.02.034c-.665 1.163-1.001 1.753-1.468 2.197a4.388 4.388 0 0 1-1.79 1.039c-.611.169-1.296.169-2.666.169Zm14.693 0h8.337c1.23 0 1.849 0 2.217-.243.398-.258.648-.693.67-1.164.021-.42-.274-.93-.853-1.929a9.616 9.616 0 0 1-.06-.104l-4.175-7.144-.048-.08c-.587-.992-.883-1.493-1.263-1.687a1.466 1.466 0 0 0-1.333 0c-.383.199-.692.722-1.304 1.775l-4.161 7.144-.014.025c-.609 1.051-.914 1.577-.892 2.008.029.471.272.906.67 1.164.361.236.98.236 2.21.236Z" fill="#E84142"/></svg>