<svg width="24" height="24" viewBox="0 0 24 24" fill="none" xmlns="http://www.w3.org/2000/svg">
<path d="M13.9968 21H9.99684M17.9968 8C17.9968 6.4087 17.3647 4.88258 16.2395 3.75736C15.1143 2.63214 13.5881 2 11.9968 2C10.4055 2 8.87942 2.63214 7.7542 3.75736C6.62899 4.88258 5.99684 6.4087 5.99684 8C5.99684 11.0902 5.21731 13.206 4.34651 14.6054C3.61197 15.7859 3.2447 16.3761 3.25817 16.5408C3.27308 16.7231 3.3117 16.7926 3.45862 16.9016C3.5913 17 4.18944 17 5.3857 17H18.608C19.8043 17 20.4024 17 20.5351 16.9016C20.682 16.7926 20.7206 16.7231 20.7355 16.5408C20.749 16.3761 20.3817 15.7859 19.6472 14.6054C18.7764 13.206 17.9968 11.0902 17.9968 8Z" stroke="#777879" stroke-width="2" stroke-linecap="round" stroke-linejoin="round"/>
</svg>
