<svg width="117" height="130" viewBox="0 0 117 130" fill="none" xmlns="http://www.w3.org/2000/svg">
<g style="mix-blend-mode:soft-light">
<path d="M54.6667 88.8333V116.167M109.333 75.1667V116.167M82 47.8333V116.167M53.3 143.5H110.7C122.181 143.5 127.922 143.5 132.307 141.266C136.164 139.3 139.3 136.164 141.266 132.307C143.5 127.922 143.5 122.181 143.5 110.7V53.3C143.5 41.8189 143.5 36.0784 141.266 31.6932C139.3 27.8359 136.164 24.6998 132.307 22.7344C127.922 20.5 122.181 20.5 110.7 20.5H53.3C41.8189 20.5 36.0784 20.5 31.6932 22.7344C27.8359 24.6998 24.6998 27.8359 22.7344 31.6932C20.5 36.0784 20.5 41.8189 20.5 53.3V110.7C20.5 122.181 20.5 127.922 22.7344 132.307C24.6998 136.164 27.8359 139.3 31.6932 141.266C36.0784 143.5 41.8189 143.5 53.3 143.5Z" stroke="#002826" stroke-width="13.67" stroke-linecap="round" stroke-linejoin="round"/>
</g>
</svg>
