<svg width="115" height="129" viewBox="0 0 115 129" fill="none" xmlns="http://www.w3.org/2000/svg">
<g style="mix-blend-mode:soft-light">
<path d="M40.9867 40.9998L54.6533 27.3331M54.6533 27.3331L40.9867 13.6664M54.6533 27.3331H40.9867C25.8909 27.3331 13.6533 39.5707 13.6533 54.6664M122.987 123L109.32 136.666M109.32 136.666L122.987 150.333M109.32 136.666H122.987C138.082 136.666 150.32 124.429 150.32 109.333M91.6706 91.6838C97.0161 94.237 103.001 95.6664 109.32 95.6664C131.964 95.6664 150.32 77.3101 150.32 54.6664C150.32 32.0228 131.964 13.6664 109.32 13.6664C86.6763 13.6664 68.32 32.0228 68.32 54.6664C68.32 60.9853 69.7494 66.9704 72.3026 72.3158M95.6533 109.333C95.6533 131.977 77.297 150.333 54.6533 150.333C32.0096 150.333 13.6533 131.977 13.6533 109.333C13.6533 86.6894 32.0096 68.3331 54.6533 68.3331C77.297 68.3331 95.6533 86.6894 95.6533 109.333Z" stroke="#002826" stroke-width="13.6667" stroke-linecap="round" stroke-linejoin="round"/>
</g>
</svg>
