<svg width="146" height="121" viewBox="0 0 146 121" fill="none" xmlns="http://www.w3.org/2000/svg">
<g style="mix-blend-mode:soft-light">
<path d="M92.4514 57.071C88.5398 59.8596 83.7531 61.5 78.5832 61.5C65.3744 61.5 54.6665 50.7921 54.6665 37.5833C54.6665 24.3745 65.3744 13.6667 78.5832 13.6667C87.1453 13.6667 94.6565 18.1658 98.8816 24.929M40.9998 137.262H58.8368C61.1625 137.262 63.4739 137.539 65.7284 138.092L84.5753 142.672C88.6647 143.669 92.9248 143.765 97.0569 142.963L117.895 138.909C123.4 137.836 128.464 135.201 132.432 131.34L147.175 116.998C151.386 112.91 151.386 106.275 147.175 102.179C143.385 98.4918 137.382 98.0767 133.094 101.204L115.911 113.74C113.45 115.539 110.456 116.507 107.376 116.507H90.7841L101.345 116.507C107.298 116.507 112.12 111.816 112.12 106.025V103.929C112.12 99.1209 108.756 94.9284 103.963 93.7661L87.6619 89.8019C85.0091 89.1585 82.2923 88.8333 79.5613 88.8333C72.9684 88.8333 61.0344 94.2919 61.0344 94.2919L40.9998 102.67M136.667 44.4167C136.667 57.6255 125.959 68.3333 112.75 68.3333C99.541 68.3333 88.8332 57.6255 88.8332 44.4167C88.8332 31.2078 99.541 20.5 112.75 20.5C125.959 20.5 136.667 31.2078 136.667 44.4167ZM13.6665 99.7667L13.6665 139.4C13.6665 143.227 13.6665 145.141 14.4113 146.602C15.0664 147.888 16.1118 148.933 17.3976 149.589C18.8593 150.333 20.7728 150.333 24.5998 150.333H30.0665C33.8935 150.333 35.807 150.333 37.2688 149.589C38.5545 148.933 39.5999 147.888 40.255 146.602C40.9998 145.141 40.9998 143.227 40.9998 139.4V99.7667C40.9998 95.9396 40.9998 94.0261 40.255 92.5644C39.5999 91.2786 38.5545 90.2333 37.2688 89.5781C35.807 88.8333 33.8935 88.8333 30.0665 88.8333L24.5998 88.8333C20.7728 88.8333 18.8593 88.8333 17.3976 89.5781C16.1118 90.2332 15.0664 91.2786 14.4113 92.5644C13.6665 94.0261 13.6665 95.9396 13.6665 99.7667Z" stroke="#002826" stroke-width="13.6667" stroke-linecap="round" stroke-linejoin="round"/>
</g>
</svg>
