<svg width="123" height="123" viewBox="0 0 123 123" fill="none" xmlns="http://www.w3.org/2000/svg">
<g style="mix-blend-mode:soft-light">
<path d="M88.8334 34.1667C88.8334 41.7146 72.0068 47.8333 51.2501 47.8333C30.4934 47.8333 13.6667 41.7146 13.6667 34.1667M88.8334 34.1667C88.8334 26.6188 72.0068 20.5 51.2501 20.5C30.4934 20.5 13.6667 26.6188 13.6667 34.1667M88.8334 34.1667V44.4167M13.6667 34.1667V116.167C13.6667 123.715 30.4934 129.833 51.2501 129.833M51.2501 75.1667C50.0984 75.1667 48.9587 75.1478 47.8334 75.111C28.6779 74.4832 13.6667 68.6291 13.6667 61.5M51.2501 102.5C30.4934 102.5 13.6667 96.3812 13.6667 88.8333M150.333 78.5833C150.333 86.1312 133.507 92.25 112.75 92.25C91.9934 92.25 75.1667 86.1312 75.1667 78.5833M150.333 78.5833C150.333 71.0354 133.507 64.9167 112.75 64.9167C91.9934 64.9167 75.1667 71.0354 75.1667 78.5833M150.333 78.5833V129.833C150.333 137.381 133.507 143.5 112.75 143.5C91.9934 143.5 75.1667 137.381 75.1667 129.833V78.5833M150.333 104.208C150.333 111.756 133.507 117.875 112.75 117.875C91.9934 117.875 75.1667 111.756 75.1667 104.208" stroke="#002826" stroke-width="13.6667" stroke-linecap="round" stroke-linejoin="round"/>
</g>
</svg>
