<svg width="115" height="130" viewBox="0 0 115 130" fill="none" xmlns="http://www.w3.org/2000/svg">
<g style="mix-blend-mode:soft-light">
<path d="M40.9991 75.1667H68.3325M54.6658 61.5V88.8333M102.499 82H102.567M122.999 68.3333H123.067M71.4003 34.1667H92.5979C110.535 34.1667 119.503 34.1667 126.542 37.5658C132.74 40.5585 137.89 45.3534 141.317 51.3224C145.209 58.1018 145.848 67.0473 147.126 84.9385L148.807 108.476C149.631 120.017 140.491 129.833 128.92 129.833C123.004 129.833 117.392 127.205 113.604 122.66L111.041 119.583C108.696 116.77 107.523 115.362 106.188 114.226C103.39 111.842 100.002 110.255 96.3789 109.631C94.6509 109.333 92.8195 109.333 89.1566 109.333H74.8416C71.1788 109.333 69.3473 109.333 67.6193 109.631C63.9967 110.255 60.6086 111.842 57.8099 114.226C56.4748 115.362 55.3024 116.769 52.9575 119.583L50.3939 122.66C46.6059 127.205 40.9947 129.833 35.0778 129.833C23.5074 129.833 14.367 120.017 15.1913 108.476L16.8726 84.9385C18.1505 67.0473 18.7895 58.1018 22.6815 51.3224C26.1083 45.3534 31.2578 40.5585 37.4558 37.5658C44.4952 34.1667 53.4636 34.1667 71.4003 34.1667Z" stroke="#002826" stroke-width="13.67" stroke-linecap="round" stroke-linejoin="round"/>
</g>
</svg>
