<svg width="136" height="130" viewBox="0 0 136 130" fill="none" xmlns="http://www.w3.org/2000/svg">
<g style="mix-blend-mode:soft-light">
<path d="M17.0867 88.8333H58.0867M105.92 88.8333H146.92M82.0034 47.8333V143.5M82.0034 47.8333C91.4383 47.8333 99.0867 40.1848 99.0867 30.75M82.0034 47.8333C72.5685 47.8333 64.9201 40.1849 64.9201 30.75M27.3367 143.5L136.67 143.5M27.3367 30.75L64.9201 30.75M64.9201 30.75C64.9201 21.3151 72.5685 13.6667 82.0034 13.6667C91.4383 13.6667 99.0867 21.3151 99.0867 30.75M99.0867 30.75L136.67 30.75M60.6864 97.9651C57.9483 108.449 48.6438 116.167 37.5867 116.167C26.5297 116.167 17.2252 108.449 14.4871 97.9651C14.2634 97.1085 14.1515 96.6802 14.1407 94.9687C14.1341 93.9197 14.524 91.5008 14.8599 90.5069C15.4078 88.8856 16.001 87.9704 17.1873 86.1401L37.5867 54.6667L57.9862 86.1401C59.1725 87.9704 59.7657 88.8856 60.3136 90.5069C60.6495 91.5008 61.0394 93.9197 61.0328 94.9687C61.022 96.6802 60.9101 97.1085 60.6864 97.9651ZM149.52 97.9651C146.782 108.449 137.477 116.167 126.42 116.167C115.363 116.167 106.058 108.449 103.32 97.9651C103.097 97.1085 102.985 96.6802 102.974 94.9687C102.967 93.9197 103.357 91.5008 103.693 90.5069C104.241 88.8856 104.834 87.9704 106.021 86.1401L126.42 54.6667L146.82 86.1401C148.006 87.9704 148.599 88.8856 149.147 90.5069C149.483 91.5008 149.873 93.9197 149.866 94.9687C149.855 96.6802 149.743 97.1085 149.52 97.9651Z" stroke="#002826" stroke-width="13.67" stroke-linecap="round" stroke-linejoin="round"/>
</g>
</svg>
