<svg width="60" height="60" viewBox="0 0 60 60" fill="none" xmlns="http://www.w3.org/2000/svg"><circle cx="30" cy="30" r="30" fill="#F0B90B"/><path d="M20.79 18.361 30 13l9.21 5.361-3.386 1.98L30 16.961l-5.824 3.38-3.386-1.98Zm18.42 6.761-3.386-1.98L30 26.521l-5.824-3.38-3.386 1.98v3.961l5.824 3.38v6.761L30 41.204l3.386-1.98v-6.76l5.824-3.381v-3.961Zm0 10.722v-3.961l-3.386 1.98v3.961l3.386-1.98Zm2.404 1.4-5.824 3.38v3.961l9.21-5.36V28.501l-3.386 1.98v6.762ZM38.228 21.74l3.386 1.98v3.962L45 25.703V21.74l-3.386-1.98-3.386 1.98ZM26.614 42.06v3.96L30 48l3.386-1.98v-3.962L30 44.04l-3.386-1.98Zm-5.824-6.215 3.386 1.98v-3.96l-3.386-1.981v3.96Zm5.824-14.103L30 23.721l3.386-1.98L30 19.761l-3.386 1.98Zm-8.228 1.98 3.386-1.98-3.386-1.98L15 21.741v3.961l3.386 1.98v-3.96Zm0 6.762L15 28.503v10.721l9.21 5.361v-3.96l-5.824-3.381v-6.761Z" fill="#fff"/></svg>