<svg width="25" height="24" viewBox="0 0 25 24" fill="none" xmlns="http://www.w3.org/2000/svg">
<g id="chevron right">
<path id="Icon" d="M16.28 12.7199C16.4207 12.5793 16.4998 12.3887 16.5 12.1899V11.8099C16.4977 11.6114 16.4189 11.4216 16.28 11.2799L11.14 6.14985C11.0461 6.0552 10.9183 6.00195 10.785 6.00195C10.6517 6.00195 10.5239 6.0552 10.43 6.14985L9.72 6.85985C9.62594 6.95202 9.57293 7.07816 9.57293 7.20985C9.57293 7.34154 9.62594 7.46769 9.72 7.55985L14.17 11.9999L9.72 16.4399C9.62534 16.5337 9.5721 16.6615 9.5721 16.7949C9.5721 16.9282 9.62534 17.056 9.72 17.1499L10.43 17.8499C10.5239 17.9445 10.6517 17.9978 10.785 17.9978C10.9183 17.9978 11.0461 17.9445 11.14 17.8499L16.28 12.7199Z" fill="#2ED3B7"/>
</g>
</svg>
