<svg width="72" height="72" viewBox="0 0 72 72" fill="none" xmlns="http://www.w3.org/2000/svg">
<g filter="url(#filter0_b_2423_1624)">
<rect width="72" height="72" rx="16" fill="#0C0C0D"/>
<g clip-path="url(#clip0_2423_1624)">
<path d="M39 28.5H33L30.7781 25.1672C30.4453 24.6656 30.8016 24 31.4016 24H40.5984C41.1984 24 41.5547 24.6656 41.2219 25.1672L39 28.5ZM33 30H39C39.1781 30.1172 39.3797 30.2484 39.6094 30.3937C42.2672 32.0953 48 35.7609 48 43.5C48 45.9844 45.9844 48 43.5 48H28.5C26.0156 48 24 45.9844 24 43.5C24 35.7609 29.7328 32.0953 32.3906 30.3937C32.6156 30.2484 32.8219 30.1172 33 30ZM36.9375 34.125C36.9375 33.6094 36.5156 33.1875 36 33.1875C35.4844 33.1875 35.0625 33.6094 35.0625 34.125V34.7812C34.7063 34.8609 34.35 34.9875 34.0219 35.1797C33.3703 35.5688 32.8078 36.2484 32.8125 37.2375C32.8172 38.1891 33.375 38.7891 33.9703 39.1453C34.4859 39.4547 35.1281 39.6516 35.6391 39.8016L35.7188 39.825C36.3094 40.0031 36.7406 40.1437 37.0312 40.3266C37.2703 40.4766 37.3031 40.5797 37.3078 40.7109C37.3125 40.9453 37.2234 41.0859 37.0312 41.2031C36.7969 41.3484 36.4266 41.4375 36.0281 41.4234C35.5078 41.4047 35.0203 41.2406 34.3828 41.025C34.275 40.9875 34.1625 40.95 34.0453 40.9125C33.5531 40.7484 33.0234 41.0156 32.8594 41.5031C32.6953 41.9906 32.9625 42.525 33.45 42.6891C33.5391 42.7172 33.6375 42.75 33.7359 42.7875C34.125 42.9234 34.575 43.0781 35.0578 43.1813V43.875C35.0578 44.3906 35.4797 44.8125 35.9953 44.8125C36.5109 44.8125 36.9328 44.3906 36.9328 43.875V43.2281C37.3078 43.1484 37.6828 43.0172 38.0203 42.8063C38.6906 42.3891 39.1969 41.6766 39.1828 40.6969C39.1687 39.7453 38.6344 39.1313 38.0297 38.7469C37.4906 38.4094 36.8156 38.2031 36.2906 38.0438L36.2578 38.0344C35.6578 37.8516 35.2312 37.7203 34.9312 37.5422C34.6875 37.3969 34.6828 37.3125 34.6828 37.2281C34.6828 37.0547 34.7484 36.9234 34.9734 36.7922C35.2266 36.6422 35.6109 36.5531 35.9813 36.5578C36.4313 36.5625 36.9281 36.6609 37.4437 36.8016C37.9453 36.9328 38.4562 36.6375 38.5922 36.1359C38.7281 35.6344 38.4281 35.1234 37.9266 34.9875C37.6219 34.9078 37.2844 34.8281 36.9375 34.7672V34.125Z" fill="#2ED3B7"/>
</g>
</g>
<defs>
<filter id="filter0_b_2423_1624" x="-30.8" y="-30.8" width="133.6" height="133.6" filterUnits="userSpaceOnUse" color-interpolation-filters="sRGB">
<feFlood flood-opacity="0" result="BackgroundImageFix"/>
<feGaussianBlur in="BackgroundImageFix" stdDeviation="15.4"/>
<feComposite in2="SourceAlpha" operator="in" result="effect1_backgroundBlur_2423_1624"/>
<feBlend mode="normal" in="SourceGraphic" in2="effect1_backgroundBlur_2423_1624" result="shape"/>
</filter>
<clipPath id="clip0_2423_1624">
<rect width="24" height="24" fill="white" transform="translate(24 24)"/>
</clipPath>
</defs>
</svg>
