<svg width="48" height="48" viewBox="0 0 48 48" fill="none" xmlns="http://www.w3.org/2000/svg">
<g filter="url(#filter0_b_3393_20421)">
<rect width="48" height="48" rx="16" fill="#E4F2F3"/>
<g clip-path="url(#clip0_3393_20421)">
<path d="M26 19H22L20.5188 16.7781C20.2969 16.4437 20.5344 16 20.9344 16H27.0656C27.4656 16 27.7031 16.4437 27.4812 16.7781L26 19ZM22 20H26C26.1187 20.0781 26.2531 20.1656 26.4062 20.2625C28.1781 21.3969 32 23.8406 32 29C32 30.6562 30.6562 32 29 32H19C17.3438 32 16 30.6562 16 29C16 23.8406 19.8219 21.3969 21.5938 20.2625C21.7438 20.1656 21.8812 20.0781 22 20ZM24.625 22.75C24.625 22.4062 24.3438 22.125 24 22.125C23.6562 22.125 23.375 22.4062 23.375 22.75V23.1875C23.1375 23.2406 22.9 23.325 22.6813 23.4531C22.2469 23.7125 21.8719 24.1656 21.875 24.825C21.8781 25.4594 22.25 25.8594 22.6469 26.0969C22.9906 26.3031 23.4188 26.4344 23.7594 26.5344L23.8125 26.55C24.2063 26.6687 24.4937 26.7625 24.6875 26.8844C24.8469 26.9844 24.8687 27.0531 24.8719 27.1406C24.875 27.2969 24.8156 27.3906 24.6875 27.4688C24.5312 27.5656 24.2844 27.625 24.0188 27.6156C23.6719 27.6031 23.3469 27.4938 22.9219 27.35C22.85 27.325 22.775 27.3 22.6969 27.275C22.3688 27.1656 22.0156 27.3438 21.9062 27.6687C21.7969 27.9937 21.975 28.35 22.3 28.4594C22.3594 28.4781 22.425 28.5 22.4906 28.525C22.75 28.6156 23.05 28.7188 23.3719 28.7875V29.25C23.3719 29.5938 23.6531 29.875 23.9969 29.875C24.3406 29.875 24.6219 29.5938 24.6219 29.25V28.8188C24.8719 28.7656 25.1219 28.6781 25.3469 28.5375C25.7937 28.2594 26.1312 27.7844 26.1219 27.1313C26.1125 26.4969 25.7562 26.0875 25.3531 25.8313C24.9937 25.6062 24.5438 25.4688 24.1938 25.3625L24.1719 25.3562C23.7719 25.2344 23.4875 25.1469 23.2875 25.0281C23.125 24.9312 23.1219 24.875 23.1219 24.8188C23.1219 24.7031 23.1656 24.6156 23.3156 24.5281C23.4844 24.4281 23.7406 24.3687 23.9875 24.3719C24.2875 24.375 24.6187 24.4406 24.9625 24.5344C25.2969 24.6219 25.6375 24.425 25.7281 24.0906C25.8187 23.7562 25.6188 23.4156 25.2844 23.325C25.0813 23.2719 24.8562 23.2188 24.625 23.1781V22.75Z" fill="#2ED3B7"/>
</g>
</g>
<defs>
<filter id="filter0_b_3393_20421" x="-30.8" y="-30.8" width="109.6" height="109.6" filterUnits="userSpaceOnUse" color-interpolation-filters="sRGB">
<feFlood flood-opacity="0" result="BackgroundImageFix"/>
<feGaussianBlur in="BackgroundImageFix" stdDeviation="15.4"/>
<feComposite in2="SourceAlpha" operator="in" result="effect1_backgroundBlur_3393_20421"/>
<feBlend mode="normal" in="SourceGraphic" in2="effect1_backgroundBlur_3393_20421" result="shape"/>
</filter>
<clipPath id="clip0_3393_20421">
<rect width="16" height="16" fill="white" transform="translate(16 16)"/>
</clipPath>
</defs>
</svg>
