<svg width="16" height="16" viewBox="0 0 16 16" fill="none" xmlns="http://www.w3.org/2000/svg">
<g id="coins-hand" clip-path="url(#clip0_1400_3930)">
<path id="Icon" d="M9.02031 5.56782C8.6387 5.83988 8.1717 5.99992 7.66732 5.99992C6.37865 5.99992 5.33398 4.95525 5.33398 3.66659C5.33398 2.37792 6.37865 1.33325 7.66732 1.33325C8.50264 1.33325 9.23545 1.7722 9.64766 2.43201M4.00065 13.3914H5.74084C5.96774 13.3914 6.19324 13.4184 6.41319 13.4724L8.25191 13.9192C8.65088 14.0164 9.0665 14.0258 9.46963 13.9475L11.5026 13.552C12.0397 13.4474 12.5337 13.1902 12.9209 12.8136L14.3592 11.4144C14.77 11.0155 14.77 10.3682 14.3592 9.96863C13.9894 9.60888 13.4038 9.56838 12.9854 9.87346L11.309 11.0965C11.069 11.272 10.7769 11.3665 10.4764 11.3665H8.85765L9.88803 11.3664C10.4688 11.3664 10.9392 10.9088 10.9392 10.3439V10.1393C10.9392 9.67025 10.611 9.26123 10.1434 9.14783L8.55305 8.76108C8.29424 8.69831 8.02919 8.66659 7.76274 8.66659C7.11954 8.66659 5.95525 9.19913 5.95525 9.19913L4.00065 10.0165M13.334 4.33325C13.334 5.62192 12.2893 6.66659 11.0007 6.66659C9.71199 6.66659 8.66732 5.62192 8.66732 4.33325C8.66732 3.04459 9.71199 1.99992 11.0007 1.99992C12.2893 1.99992 13.334 3.04459 13.334 4.33325ZM1.33398 9.73325L1.33398 13.5999C1.33398 13.9733 1.33398 14.16 1.40665 14.3026C1.47056 14.428 1.57255 14.53 1.69799 14.5939C1.8406 14.6666 2.02728 14.6666 2.40065 14.6666H2.93398C3.30735 14.6666 3.49404 14.6666 3.63664 14.5939C3.76209 14.53 3.86407 14.428 3.92799 14.3026C4.00065 14.16 4.00065 13.9733 4.00065 13.5999V9.73325C4.00065 9.35988 4.00065 9.1732 3.92799 9.03059C3.86407 8.90515 3.76209 8.80316 3.63664 8.73925C3.49404 8.66659 3.30735 8.66659 2.93398 8.66659L2.40065 8.66659C2.02728 8.66659 1.8406 8.66659 1.69799 8.73925C1.57255 8.80316 1.47056 8.90515 1.40665 9.03059C1.33398 9.1732 1.33398 9.35988 1.33398 9.73325Z" stroke="#A5A5A6" stroke-width="1.33333" stroke-linecap="round" stroke-linejoin="round"/>
</g>
<defs>
<clipPath id="clip0_1400_3930">
<rect width="16" height="16" fill="white"/>
</clipPath>
</defs>
</svg>
