<svg width="16" height="16" viewBox="0 0 16 16" fill="none" xmlns="http://www.w3.org/2000/svg">
<g id="coins-swap-01" clip-path="url(#clip0_1198_53934)">
<path id="Icon" d="M3.9987 4.00016L5.33203 2.66683M5.33203 2.66683L3.9987 1.3335M5.33203 2.66683H3.9987C2.52594 2.66683 1.33203 3.86074 1.33203 5.3335M11.9987 12.0002L10.6654 13.3335M10.6654 13.3335L11.9987 14.6668M10.6654 13.3335H11.9987C13.4715 13.3335 14.6654 12.1396 14.6654 10.6668M8.94348 8.94494C9.46498 9.19404 10.0489 9.3335 10.6654 9.3335C12.8745 9.3335 14.6654 7.54264 14.6654 5.3335C14.6654 3.12436 12.8745 1.3335 10.6654 1.3335C8.45623 1.3335 6.66536 3.12436 6.66536 5.3335C6.66536 5.94997 6.80482 6.53388 7.05392 7.05538M9.33203 10.6668C9.33203 12.876 7.54117 14.6668 5.33203 14.6668C3.12289 14.6668 1.33203 12.876 1.33203 10.6668C1.33203 8.45769 3.12289 6.66683 5.33203 6.66683C7.54117 6.66683 9.33203 8.45769 9.33203 10.6668Z" stroke="#0E9384" stroke-width="1.33333" stroke-linecap="round" stroke-linejoin="round"/>
</g>
<defs>
<clipPath id="clip0_1198_53934">
<rect width="16" height="16" fill="white"/>
</clipPath>
</defs>
</svg>
