<svg width="16" height="16" viewBox="0 0 16 16" fill="none" xmlns="http://www.w3.org/2000/svg">
<g id="coins-stacked-03">
<path id="Icon" d="M8.66732 3.33333C8.66732 4.06971 7.0257 4.66667 5.00065 4.66667C2.97561 4.66667 1.33398 4.06971 1.33398 3.33333M8.66732 3.33333C8.66732 2.59695 7.0257 2 5.00065 2C2.97561 2 1.33398 2.59695 1.33398 3.33333M8.66732 3.33333V4.33333M1.33398 3.33333V11.3333C1.33398 12.0697 2.97561 12.6667 5.00065 12.6667M5.00065 7.33333C4.88829 7.33333 4.7771 7.3315 4.66732 7.3279C2.79848 7.26666 1.33398 6.69552 1.33398 6M5.00065 10C2.97561 10 1.33398 9.40305 1.33398 8.66667M14.6673 7.66667C14.6673 8.40305 13.0257 9 11.0007 9C8.97561 9 7.33398 8.40305 7.33398 7.66667M14.6673 7.66667C14.6673 6.93029 13.0257 6.33333 11.0007 6.33333C8.97561 6.33333 7.33398 6.93029 7.33398 7.66667M14.6673 7.66667V12.6667C14.6673 13.403 13.0257 14 11.0007 14C8.97561 14 7.33398 13.403 7.33398 12.6667V7.66667M14.6673 10.1667C14.6673 10.903 13.0257 11.5 11.0007 11.5C8.97561 11.5 7.33398 10.903 7.33398 10.1667" stroke="#A5A5A6" stroke-width="1.33333" stroke-linecap="round" stroke-linejoin="round"/>
</g>
</svg>
