<svg width="16" height="16" viewBox="0 0 16 16" fill="none" xmlns="http://www.w3.org/2000/svg">
<g id="scales-02">
<path id="Icon" d="M1.66633 8.66659H5.66633M10.333 8.66659H14.333M7.99967 4.66659V13.9999M7.99967 4.66659C8.92014 4.66659 9.66633 3.92039 9.66633 2.99992M7.99967 4.66659C7.07919 4.66659 6.333 3.92039 6.333 2.99992M2.66633 13.9999L13.333 13.9999M2.66633 2.99992L6.333 2.99992M6.333 2.99992C6.333 2.07944 7.07919 1.33325 7.99967 1.33325C8.92014 1.33325 9.66633 2.07944 9.66633 2.99992M9.66633 2.99992L13.333 2.99992M5.91996 9.55749C5.65283 10.5803 4.74507 11.3333 3.66633 11.3333C2.5876 11.3333 1.67984 10.5803 1.41271 9.55749C1.39088 9.47392 1.37997 9.43213 1.37891 9.26516C1.37827 9.16282 1.41631 8.92682 1.44908 8.82986C1.50254 8.67168 1.5604 8.5824 1.67614 8.40384L3.66633 5.33325L5.65652 8.40384C5.77226 8.5824 5.83013 8.67168 5.88359 8.82986C5.91636 8.92682 5.95439 9.16282 5.95375 9.26516C5.9527 9.43213 5.94178 9.47392 5.91996 9.55749ZM14.5866 9.55749C14.3195 10.5803 13.4117 11.3333 12.333 11.3333C11.2543 11.3333 10.3465 10.5803 10.0794 9.55749C10.0575 9.47392 10.0466 9.43213 10.0456 9.26516C10.0449 9.16282 10.083 8.92682 10.1157 8.82986C10.1692 8.67168 10.2271 8.5824 10.3428 8.40384L12.333 5.33325L14.3232 8.40384C14.4389 8.5824 14.4968 8.67168 14.5503 8.82986C14.583 8.92682 14.6211 9.16282 14.6204 9.26516C14.6194 9.43213 14.6085 9.47392 14.5866 9.55749Z" stroke="#A5A5A6" stroke-width="1.33333" stroke-linecap="round" stroke-linejoin="round"/>
</g>
</svg>
