<svg width="16" height="14" viewBox="0 0 16 14" fill="none" xmlns="http://www.w3.org/2000/svg">
<path d="M2 0C0.896875 0 0 0.896875 0 2V12C0 13.1031 0.896875 14 2 14H14C15.1031 14 16 13.1031 16 12V5C16 3.89687 15.1031 3 14 3H2.5C2.225 3 2 2.775 2 2.5C2 2.225 2.225 2 2.5 2H14C14.5531 2 15 1.55313 15 1C15 0.446875 14.5531 0 14 0H2ZM13 7.5C13.2652 7.5 13.5196 7.60536 13.7071 7.79289C13.8946 7.98043 14 8.23478 14 8.5C14 8.76522 13.8946 9.01957 13.7071 9.20711C13.5196 9.39464 13.2652 9.5 13 9.5C12.7348 9.5 12.4804 9.39464 12.2929 9.20711C12.1054 9.01957 12 8.76522 12 8.5C12 8.23478 12.1054 7.98043 12.2929 7.79289C12.4804 7.60536 12.7348 7.5 13 7.5Z" fill="#2ED3B7"/>
</svg>
