<svg width="18" height="18" viewBox="0 0 18 18" fill="none" xmlns="http://www.w3.org/2000/svg">
<path id="Icon" d="M12.2005 12.1999V14.4398C12.2005 15.3359 12.2005 15.7839 12.0261 16.1261C11.8727 16.4272 11.6279 16.6719 11.3269 16.8253C10.9846 16.9997 10.5365 16.9997 9.6404 16.9997H3.56012C2.66399 16.9997 2.21593 16.9997 1.87366 16.8253C1.57258 16.6719 1.3278 16.4272 1.1744 16.1261C1 15.7839 1 15.3359 1 14.4398V8.36013C1 7.46409 1 7.01607 1.1744 6.67383C1.3278 6.37278 1.57258 6.12802 1.87366 5.97463C2.21593 5.80025 2.66399 5.80025 3.56012 5.80025H5.80022M8.36034 12.1999H14.4406C15.3367 12.1999 15.7848 12.1999 16.1271 12.0256C16.4282 11.8722 16.6729 11.6274 16.8263 11.3264C17.0007 10.9841 17.0007 10.5361 17.0007 9.64007V3.56036C17.0007 2.66432 17.0007 2.2163 16.8263 1.87406C16.6729 1.57302 16.4282 1.32826 16.1271 1.17487C15.7848 1.00049 15.3367 1.00049 14.4406 1.00049H8.36034C7.46421 1.00049 7.01615 1.00049 6.67388 1.17487C6.3728 1.32826 6.12802 1.57302 5.97462 1.87406C5.80022 2.2163 5.80022 2.66432 5.80022 3.56036V9.64007C5.80022 10.5361 5.80022 10.9841 5.97462 11.3264C6.12802 11.6274 6.3728 11.8722 6.67388 12.0256C7.01615 12.1999 7.46421 12.1999 8.36034 12.1999Z" stroke="#2ED3B7" stroke-width="1.6" stroke-linecap="round" stroke-linejoin="round"/>
</svg>
