<svg width="56" height="56" viewBox="0 0 56 56" fill="none" xmlns="http://www.w3.org/2000/svg">
<rect width="56" height="56" rx="8" fill="#FCFDFE"/>
<path d="M37.0747 21.8296C34.997 20.2766 31.7115 20.0135 31.5727 20.0024C31.3532 19.9848 31.145 20.1004 31.055 20.287C31.0515 20.2933 30.8681 20.7884 30.6907 21.2659C33.1052 21.659 34.7458 22.5311 34.8332 22.579C35.243 22.8006 35.3801 23.2893 35.141 23.6696C34.9824 23.9231 34.6952 24.065 34.4004 24.065C34.2538 24.065 34.1064 24.0307 33.971 23.9574C33.947 23.9438 31.5401 22.6698 28.4021 22.6698C25.2632 22.6698 22.8555 23.9446 22.8315 23.9574C22.4227 24.1782 21.8981 24.0482 21.6607 23.6672C21.4232 23.2877 21.5612 22.8006 21.9692 22.579C22.0567 22.5311 23.7032 21.6558 26.1247 21.2636C25.9378 20.7804 25.7492 20.2933 25.7458 20.287C25.6558 20.0996 25.4475 19.9816 25.2281 20.0024C25.0892 20.0127 21.8038 20.2758 19.6987 21.8503C18.5981 22.7958 16.4004 28.3237 16.4004 33.1031C16.4004 33.1876 16.4235 33.2697 16.469 33.343C17.987 35.8224 22.1252 36.4713 23.0681 36.4992C23.0741 36.5 23.0792 36.5 23.0844 36.5C23.2507 36.5 23.4075 36.4259 23.5061 36.3007L24.5261 35.0156C22.289 34.5141 21.1061 33.7257 21.035 33.677C20.6544 33.4164 20.5721 32.9173 20.8524 32.5625C21.1318 32.2094 21.6667 32.1312 22.0472 32.3903C22.079 32.4095 24.2621 33.8309 28.4004 33.8309C32.555 33.8309 34.7321 32.4039 34.7535 32.3895C35.1341 32.1328 35.6707 32.2102 35.9492 32.5657C36.227 32.9197 36.1464 33.4156 35.7675 33.6755C35.6964 33.7241 34.5195 34.5109 32.2875 35.0124L33.2947 36.2999C33.3932 36.4259 33.5501 36.4992 33.7164 36.4992C33.7224 36.4992 33.7275 36.4992 33.7327 36.4984C34.6764 36.4705 38.8147 35.8216 40.3318 33.3422C40.3772 33.2689 40.4004 33.1868 40.4004 33.1023C40.4004 28.3237 38.2027 22.7958 37.0747 21.8296ZM24.9718 31.4393C24.0247 31.4393 23.2575 30.5472 23.2575 29.4462C23.2575 28.3452 24.0247 27.4532 24.9718 27.4532C25.919 27.4532 26.6861 28.3452 26.6861 29.4462C26.6861 30.5472 25.919 31.4393 24.9718 31.4393ZM31.829 31.4393C30.8818 31.4393 30.1147 30.5472 30.1147 29.4462C30.1147 28.3452 30.8818 27.4532 31.829 27.4532C32.7761 27.4532 33.5432 28.3452 33.5432 29.4462C33.5432 30.5472 32.7761 31.4393 31.829 31.4393Z" fill="#0C0C0D"/>
</svg>
