<svg width="13" height="14" viewBox="0 0 13 14" fill="none" xmlns="http://www.w3.org/2000/svg">
<g id="Frame" clip-path="url(#clip0_1246_91360)">
<path id="Vector" d="M4.06069 1.90096C3.89954 1.8761 3.89269 1.87353 3.96897 1.86239C4.11469 1.8401 4.45754 1.8701 4.69412 1.92581C5.24612 2.0561 5.7484 2.39039 6.28497 2.98439L6.42726 3.1421L6.63126 3.10953C7.49012 2.97239 8.36269 3.08124 9.09383 3.41639C9.29526 3.50896 9.6124 3.69239 9.65097 3.73953C9.66469 3.75496 9.68783 3.85096 9.7024 3.95467C9.75726 4.31296 9.73069 4.58638 9.62012 4.79124C9.56012 4.90267 9.55669 4.93781 9.59697 5.03381C9.61624 5.07335 9.64621 5.10669 9.68349 5.13002C9.72077 5.15336 9.76385 5.16576 9.80783 5.16581C9.98955 5.16581 10.185 4.87438 10.275 4.4681L10.311 4.3061L10.3821 4.38667C10.7738 4.82724 11.0807 5.42724 11.133 5.8541L11.1467 5.96553L11.0815 5.86439C10.9869 5.70947 10.8596 5.57699 10.7087 5.4761C10.4464 5.30381 10.1687 5.24467 9.43497 5.2061C8.77154 5.17181 8.39612 5.11524 8.02412 4.99438C7.39069 4.78867 7.07183 4.5161 6.31926 3.53553C5.98497 3.09924 5.77926 2.85839 5.57354 2.66467C5.1064 2.22324 4.64783 1.99181 4.06069 1.90181V1.90096Z" fill="white" fill-opacity="0.8"/>
<path id="Vector_2" d="M9.79844 2.87377C9.81473 2.58234 9.85416 2.38949 9.93473 2.21377C9.95239 2.16936 9.9745 2.12686 10.0007 2.08691C10.005 2.08691 9.9913 2.13834 9.96987 2.20091C9.91159 2.37234 9.9013 2.60549 9.94244 2.8772C9.99387 3.22177 10.0222 3.27149 10.3882 3.64349C10.5604 3.81834 10.7602 4.03777 10.833 4.13291L10.965 4.30434L10.833 4.18177C10.6719 4.03177 10.3016 3.73863 10.2193 3.69663C10.1644 3.6692 10.1559 3.6692 10.1224 3.70263C10.0907 3.73349 10.0847 3.77977 10.0796 3.9992C10.0736 4.3412 10.0264 4.56063 9.9133 4.7792C9.85244 4.8992 9.84301 4.87349 9.89787 4.73891C9.93901 4.63949 9.9433 4.59491 9.9433 4.26406C9.9433 3.59977 9.86273 3.43949 9.3973 3.16691C9.25691 3.08583 9.11275 3.01146 8.9653 2.94406C8.89265 2.91485 8.82218 2.88048 8.75444 2.8412C8.7673 2.82834 9.22159 2.96034 9.40416 3.02977C9.67673 3.13434 9.7213 3.1472 9.75473 3.1352C9.77616 3.12663 9.7873 3.06234 9.79759 2.87377H9.79844ZM4.37016 4.0112C4.04359 3.56377 3.84044 2.8772 3.88501 2.36377L3.89787 2.2052L3.97244 2.21806C4.11301 2.24377 4.35387 2.33291 4.46701 2.40149C4.77644 2.58834 4.91101 2.83434 5.0473 3.46691C5.08759 3.65206 5.13987 3.8612 5.16387 3.9332C5.20244 4.0472 5.34987 4.31377 5.46901 4.48691C5.55473 4.61206 5.49816 4.6712 5.30787 4.65406C5.0173 4.62834 4.62387 4.35834 4.37016 4.0112ZM9.40073 7.34291C7.87159 6.73177 7.3333 6.20034 7.3333 5.30463C7.3333 5.17263 7.33759 5.06463 7.34359 5.06463C7.34873 5.06463 7.40787 5.10749 7.47473 5.16149C7.78501 5.40834 8.13216 5.51377 9.09387 5.65349C9.65959 5.73577 9.97673 5.80177 10.2707 5.89863C11.205 6.20634 11.7819 6.83034 11.9199 7.68149C11.9593 7.92834 11.937 8.3912 11.871 8.63549C11.8196 8.82834 11.6636 9.17549 11.6224 9.1892C11.6104 9.19349 11.5993 9.14977 11.5967 9.08977C11.5813 8.77091 11.4184 8.45977 11.1459 8.22663C10.8356 7.96177 10.419 7.75006 9.40073 7.34291ZM8.32759 7.59748C8.30962 7.48893 8.28501 7.38159 8.25387 7.27606L8.21444 7.16034L8.2873 7.24177C8.38759 7.3532 8.4673 7.49634 8.53416 7.68749C8.58559 7.8332 8.59073 7.87606 8.59073 8.11263C8.59073 8.34491 8.58387 8.39377 8.53587 8.52406C8.47 8.71727 8.3596 8.89227 8.21359 9.03491C7.93416 9.31777 7.57501 9.47377 7.05644 9.53891C6.96644 9.55006 6.70416 9.56891 6.47359 9.58091C5.89159 9.61091 5.50844 9.67349 5.16473 9.79349C5.13357 9.80717 5.10016 9.81502 5.06616 9.81663C5.05244 9.80291 5.2873 9.66406 5.48016 9.57149C5.75273 9.44034 6.02444 9.3692 6.63301 9.26891C6.93301 9.2192 7.24416 9.15834 7.32301 9.13434C8.06701 8.90806 8.45016 8.32263 8.32759 7.59748Z" fill="white" fill-opacity="0.8"/>
<path id="Vector_3" d="M9.03062 8.83514C8.82747 8.40142 8.78033 7.98228 8.89176 7.59142C8.90376 7.54857 8.92262 7.51514 8.93462 7.51514C8.94576 7.51514 8.99462 7.54085 9.0409 7.57257C9.13519 7.63514 9.32205 7.74057 9.82262 8.01142C10.4466 8.34999 10.8032 8.61142 11.0449 8.91142C11.2566 9.17285 11.3878 9.47199 11.4512 9.83542C11.4872 10.0411 11.4658 10.5383 11.4126 10.7457C11.2446 11.4006 10.8555 11.9149 10.2983 12.2149C10.2169 12.2586 10.144 12.2946 10.1355 12.2946C10.1278 12.2946 10.1578 12.22 10.2015 12.1283C10.3892 11.7391 10.4106 11.3611 10.2692 10.9403C10.1818 10.6823 10.0052 10.3677 9.64862 9.83542C9.23376 9.21828 9.13262 9.05285 9.03062 8.83514ZM3.28604 11.1777C3.85433 10.7011 4.55976 10.3634 5.20347 10.2589C5.53503 10.2163 5.87135 10.2294 6.19862 10.2974C6.61004 10.402 6.97862 10.6369 7.16976 10.9154C7.35662 11.1889 7.43719 11.4263 7.52119 11.956C7.55376 12.1643 7.58976 12.3743 7.60005 12.4214C7.66262 12.6957 7.78519 12.9151 7.93605 13.0249C8.17605 13.1997 8.5909 13.2109 8.99804 13.0531C9.04033 13.0336 9.085 13.0198 9.1309 13.012C9.14547 13.0266 8.94062 13.1629 8.79662 13.2349C8.62577 13.3257 8.43466 13.3717 8.24119 13.3686C7.86833 13.3686 7.5589 13.18 7.30005 12.796C7.20511 12.6334 7.12038 12.4651 7.04633 12.292C6.77376 11.674 6.63919 11.4863 6.3229 11.2797C6.0469 11.0997 5.69119 11.068 5.42376 11.1983C5.07233 11.3697 4.97462 11.8154 5.22662 12.0983C5.34434 12.2198 5.49835 12.2998 5.66547 12.3263C5.73185 12.3354 5.79941 12.3301 5.86356 12.3108C5.92772 12.2915 5.98697 12.2586 6.03729 12.2144C6.08762 12.1701 6.12784 12.1156 6.15523 12.0545C6.18262 11.9933 6.19654 11.927 6.19604 11.86C6.19604 11.674 6.12404 11.5686 5.94319 11.4863C5.69547 11.3757 5.43062 11.5051 5.43147 11.7357C5.43147 11.8343 5.47519 11.896 5.57462 11.9414C5.63804 11.9697 5.63976 11.9714 5.58747 11.9611C5.36119 11.914 5.30804 11.6423 5.48976 11.4623C5.70919 11.2463 6.16176 11.3414 6.3169 11.6371C6.38204 11.7614 6.38976 12.0083 6.33319 12.1574C6.20462 12.4917 5.83433 12.6674 5.45719 12.5714C5.20004 12.5063 5.09633 12.436 4.7869 12.1197C4.24947 11.5694 4.04119 11.4623 3.26633 11.3423L3.11719 11.3191L3.28604 11.1777Z" fill="white" fill-opacity="0.8"/>
<path id="Vector_4" fill-rule="evenodd" clip-rule="evenodd" d="M0.764113 1.32914C2.55897 3.49429 3.79583 4.38743 3.93297 4.576C4.04611 4.732 4.00326 4.87257 3.80954 4.98229C3.67178 5.0515 3.52183 5.09314 3.36811 5.10486C3.24211 5.10486 3.1984 5.05686 3.1984 5.05686C3.12554 4.98829 3.0844 5.00029 2.70983 4.33943C2.39137 3.84379 2.06907 3.35064 1.74297 2.86C1.71554 2.83429 1.7164 2.83429 2.65754 4.50829C2.80926 4.85714 2.68754 4.98486 2.68754 5.03457C2.68754 5.13571 2.65926 5.18886 2.53411 5.32857C2.32497 5.56 2.23154 5.82057 2.16383 6.35971C2.0884 6.964 1.87583 7.39086 1.28611 8.122C0.941541 8.54971 0.88497 8.62771 0.797541 8.80086C0.687827 9.01771 0.657827 9.13943 0.645827 9.41286C0.63297 9.70343 0.657827 9.89028 0.74697 10.1671C0.824113 10.4106 0.906399 10.57 1.11468 10.8906C1.29468 11.1674 1.39754 11.3731 1.39754 11.4537C1.39754 11.5171 1.40954 11.5171 1.68897 11.4546C2.35411 11.3054 2.89497 11.0431 3.19926 10.72C3.38783 10.5203 3.43154 10.4106 3.43326 10.1371C3.43411 9.95886 3.42811 9.92114 3.37926 9.81828C3.3004 9.65114 3.1564 9.51143 2.83926 9.29543C2.42268 9.01257 2.2444 8.78543 2.1964 8.47257C2.15526 8.21543 2.2024 8.03457 2.43211 7.55543C2.6704 7.05829 2.72954 6.84657 2.76983 6.34686C2.79554 6.02371 2.83068 5.896 2.92411 5.79314C3.02183 5.68686 3.10926 5.65086 3.35097 5.61829C3.7444 5.56429 3.99383 5.464 4.19954 5.27543C4.282 5.20737 4.34853 5.12206 4.39444 5.0255C4.44035 4.92894 4.46452 4.82349 4.46526 4.71657L4.47383 4.53657L4.37354 4.42171C4.01268 4.00343 0.522399 1 0.500113 1C0.495827 1 0.614113 1.14829 0.764113 1.32914ZM1.60068 9.742C1.64001 9.67255 1.6517 9.59083 1.63343 9.51314C1.61516 9.43545 1.56827 9.3675 1.50211 9.32286C1.37354 9.23714 1.17211 9.27829 1.17211 9.38886C1.17211 9.42314 1.19097 9.448 1.23383 9.46943C1.30583 9.50628 1.31097 9.54743 1.2544 9.63229C1.19697 9.71714 1.20211 9.79171 1.26726 9.84314C1.37268 9.92457 1.52183 9.88 1.60068 9.742ZM4.72154 5.71343C4.53726 5.76914 4.35811 5.96371 4.30154 6.16771C4.26811 6.292 4.28783 6.51057 4.3384 6.57743C4.42068 6.68629 4.49954 6.71457 4.71468 6.71371C5.13468 6.71114 5.49983 6.532 5.54268 6.30743C5.57697 6.124 5.41668 5.87029 5.19554 5.758C5.04532 5.69701 4.8805 5.68151 4.72154 5.71343ZM5.21354 6.09486C5.27783 6.00314 5.24954 5.90457 5.13897 5.83771C4.92983 5.71 4.61183 5.81543 4.61183 6.01257C4.61183 6.11114 4.77726 6.21829 4.92897 6.21829C5.03011 6.21829 5.16897 6.15829 5.21354 6.09486Z" fill="white" fill-opacity="0.8"/>
</g>
<defs>
<clipPath id="clip0_1246_91360">
<rect width="12" height="12.8571" fill="white" transform="translate(0.5 0.571289)"/>
</clipPath>
</defs>
</svg>
