<svg width="12" height="14" viewBox="0 0 12 14" fill="none" xmlns="http://www.w3.org/2000/svg">
<g id="Frame" clip-path="url(#clip0_1204_68516)">
<path id="Vector" d="M3.55873 1.90047C3.39759 1.87561 3.39073 1.87304 3.46702 1.8619C3.61273 1.83961 3.95559 1.86961 4.19216 1.92533C4.74416 2.05561 5.24645 2.3899 5.78302 2.9839L5.92531 3.14161L6.12931 3.10904C6.98816 2.9719 7.86073 3.08075 8.59188 3.4159C8.79331 3.50847 9.11045 3.6919 9.14902 3.73904C9.16273 3.75447 9.18588 3.85047 9.20045 3.95418C9.25531 4.31247 9.22873 4.5859 9.11816 4.79075C9.05816 4.90218 9.05473 4.93733 9.09502 5.03333C9.11428 5.07286 9.14426 5.1062 9.18154 5.12954C9.21882 5.15287 9.2619 5.16527 9.30588 5.16533C9.48759 5.16533 9.68302 4.8739 9.77302 4.46761L9.80902 4.30561L9.88016 4.38618C10.2719 4.82675 10.5787 5.42675 10.631 5.85361L10.6447 5.96504L10.5796 5.8639C10.4849 5.70899 10.3577 5.5765 10.2067 5.47561C9.94445 5.30333 9.66673 5.24418 8.93302 5.20561C8.26959 5.17133 7.89416 5.11475 7.52216 4.9939C6.88873 4.78818 6.56988 4.51561 5.81731 3.53504C5.48302 3.09875 5.27731 2.8579 5.07159 2.66418C4.60445 2.22275 4.14588 1.99133 3.55873 1.90133V1.90047Z" fill="#4A4B4D"/>
<path id="Vector_2" d="M9.3004 2.87377C9.31668 2.58234 9.35611 2.38949 9.43668 2.21377C9.45434 2.16936 9.47645 2.12686 9.50268 2.08691C9.50697 2.08691 9.49325 2.13834 9.47183 2.20091C9.41354 2.37234 9.40325 2.60549 9.4444 2.8772C9.49582 3.22177 9.52411 3.27149 9.89011 3.64349C10.0624 3.81834 10.2621 4.03777 10.335 4.13291L10.467 4.30434L10.335 4.18177C10.1738 4.03177 9.80354 3.73863 9.72125 3.69663C9.6664 3.6692 9.65782 3.6692 9.6244 3.70263C9.59268 3.73349 9.58668 3.77977 9.58154 3.9992C9.57554 4.3412 9.5284 4.56063 9.41525 4.7792C9.3544 4.8992 9.34497 4.87349 9.39982 4.73891C9.44097 4.63949 9.44525 4.59491 9.44525 4.26406C9.44525 3.59977 9.36468 3.43949 8.89925 3.16691C8.75886 3.08583 8.6147 3.01146 8.46725 2.94406C8.3946 2.91485 8.32413 2.88048 8.2564 2.8412C8.26925 2.82834 8.72354 2.96034 8.90611 3.02977C9.17868 3.13434 9.22325 3.1472 9.25668 3.1352C9.27811 3.12663 9.28925 3.06234 9.29954 2.87377H9.3004ZM3.87211 4.0112C3.54554 3.56377 3.3424 2.8772 3.38697 2.36377L3.39983 2.2052L3.4744 2.21806C3.61497 2.24377 3.85583 2.33291 3.96897 2.40149C4.2784 2.58834 4.41297 2.83434 4.54925 3.46691C4.58954 3.65206 4.64182 3.8612 4.66582 3.9332C4.7044 4.0472 4.85182 4.31377 4.97097 4.48691C5.05668 4.61206 5.00011 4.6712 4.80983 4.65406C4.51925 4.62834 4.12583 4.35834 3.87211 4.0112ZM8.90268 7.34291C7.37354 6.73177 6.83525 6.20034 6.83525 5.30463C6.83525 5.17263 6.83954 5.06463 6.84554 5.06463C6.85068 5.06463 6.90983 5.10749 6.97668 5.16149C7.28697 5.40834 7.63411 5.51377 8.59583 5.65349C9.16154 5.73577 9.47868 5.80177 9.77268 5.89863C10.707 6.20634 11.2838 6.83034 11.4218 7.68149C11.4613 7.92834 11.439 8.3912 11.373 8.63549C11.3215 8.82834 11.1655 9.17549 11.1244 9.1892C11.1124 9.19349 11.1013 9.14977 11.0987 9.08977C11.0833 8.77091 10.9204 8.45977 10.6478 8.22663C10.3375 7.96177 9.92097 7.75006 8.90268 7.34291ZM7.82954 7.59748C7.81158 7.48893 7.78696 7.38159 7.75583 7.27606L7.7164 7.16034L7.78925 7.24177C7.88954 7.3532 7.96925 7.49634 8.03611 7.68749C8.08754 7.8332 8.09268 7.87606 8.09268 8.11263C8.09268 8.34491 8.08582 8.39377 8.03783 8.52406C7.97196 8.71727 7.86155 8.89227 7.71554 9.03491C7.43611 9.31777 7.07697 9.47377 6.5584 9.53891C6.4684 9.55006 6.20611 9.56891 5.97554 9.58091C5.39354 9.61091 5.0104 9.67349 4.66668 9.79349C4.63552 9.80717 4.60211 9.81502 4.56811 9.81663C4.5544 9.80291 4.78925 9.66406 4.98211 9.57149C5.25468 9.44034 5.5264 9.3692 6.13497 9.26891C6.43497 9.2192 6.74611 9.15834 6.82497 9.13434C7.56897 8.90806 7.95211 8.32263 7.82954 7.59748Z" fill="#4A4B4D"/>
<path id="Vector_3" d="M8.53062 8.83465C8.32747 8.40093 8.28033 7.98179 8.39176 7.59093C8.40376 7.54808 8.42262 7.51465 8.43462 7.51465C8.44576 7.51465 8.49462 7.54036 8.5409 7.57208C8.63519 7.63465 8.82205 7.74008 9.32262 8.01093C9.94662 8.34951 10.3032 8.61093 10.5449 8.91093C10.7566 9.17236 10.8878 9.47151 10.9512 9.83493C10.9872 10.0406 10.9658 10.5378 10.9126 10.7452C10.7446 11.4001 10.3555 11.9144 9.79833 12.2144C9.7169 12.2581 9.64404 12.2941 9.63547 12.2941C9.62776 12.2941 9.65776 12.2195 9.70147 12.1278C9.88919 11.7386 9.91062 11.3606 9.76919 10.9398C9.68176 10.6818 9.50519 10.3672 9.14862 9.83493C8.73376 9.21779 8.63262 9.05236 8.53062 8.83465ZM2.78604 11.1772C3.35433 10.7006 4.05976 10.3629 4.70347 10.2584C5.03503 10.2158 5.37135 10.2289 5.69862 10.2969C6.11004 10.4015 6.47862 10.6364 6.66976 10.9149C6.85662 11.1884 6.93719 11.4258 7.02119 11.9555C7.05376 12.1638 7.08976 12.3738 7.10005 12.4209C7.16262 12.6952 7.28519 12.9146 7.43605 13.0244C7.67605 13.1992 8.0909 13.2104 8.49804 13.0526C8.54033 13.0332 8.585 13.0193 8.6309 13.0115C8.64547 13.0261 8.44062 13.1624 8.29662 13.2344C8.12577 13.3252 7.93466 13.3712 7.74119 13.3681C7.36833 13.3681 7.0589 13.1795 6.80005 12.7955C6.70511 12.6329 6.62038 12.4646 6.54633 12.2915C6.27376 11.6735 6.13919 11.4858 5.8229 11.2792C5.5469 11.0992 5.19119 11.0675 4.92376 11.1978C4.57233 11.3692 4.47462 11.8149 4.72662 12.0978C4.84434 12.2193 4.99835 12.2993 5.16547 12.3258C5.23185 12.3349 5.29941 12.3296 5.36356 12.3103C5.42772 12.291 5.48697 12.2581 5.53729 12.2139C5.58762 12.1696 5.62784 12.1151 5.65523 12.054C5.68262 11.9928 5.69654 11.9265 5.69604 11.8595C5.69604 11.6735 5.62404 11.5681 5.44319 11.4858C5.19547 11.3752 4.93062 11.5046 4.93147 11.7352C4.93147 11.8338 4.97519 11.8955 5.07462 11.9409C5.13804 11.9692 5.13976 11.9709 5.08747 11.9606C4.86119 11.9135 4.80804 11.6418 4.98976 11.4618C5.20919 11.2458 5.66176 11.3409 5.8169 11.6366C5.88204 11.7609 5.88976 12.0078 5.83319 12.1569C5.70462 12.4912 5.33433 12.6669 4.95719 12.5709C4.70004 12.5058 4.59633 12.4355 4.2869 12.1192C3.74947 11.5689 3.54119 11.4618 2.76633 11.3418L2.61719 11.3186L2.78604 11.1772Z" fill="#4A4B4D"/>
<path id="Vector_4" fill-rule="evenodd" clip-rule="evenodd" d="M0.264113 1.32817C2.05897 3.49331 3.29583 4.38645 3.43297 4.57502C3.54611 4.73102 3.50326 4.87159 3.30954 4.98131C3.17178 5.05052 3.02183 5.09216 2.86811 5.10388C2.74211 5.10388 2.6984 5.05588 2.6984 5.05588C2.62554 4.98731 2.5844 4.99931 2.20983 4.33845C1.89137 3.84282 1.56907 3.34966 1.24297 2.85902C1.21554 2.83331 1.2164 2.83331 2.15754 4.50731C2.30926 4.85617 2.18754 4.98388 2.18754 5.03359C2.18754 5.13474 2.15926 5.18788 2.03411 5.32759C1.82497 5.55902 1.73154 5.81959 1.66383 6.35874C1.5884 6.96302 1.37583 7.38988 0.786113 8.12102C0.441541 8.54874 0.38497 8.62674 0.297541 8.79988C0.187827 9.01674 0.157827 9.13845 0.145827 9.41188C0.13297 9.70245 0.157827 9.88931 0.24697 10.1662C0.324113 10.4096 0.406399 10.569 0.614684 10.8896C0.794684 11.1665 0.897542 11.3722 0.897542 11.4527C0.897542 11.5162 0.909541 11.5162 1.18897 11.4536C1.85411 11.3045 2.39497 11.0422 2.69926 10.719C2.88783 10.5193 2.93154 10.4096 2.93326 10.1362C2.93411 9.95788 2.92811 9.92017 2.87926 9.81731C2.8004 9.65017 2.6564 9.51045 2.33926 9.29445C1.92268 9.01159 1.7444 8.78445 1.6964 8.47159C1.65526 8.21445 1.7024 8.03359 1.93211 7.55445C2.1704 7.05731 2.22954 6.84559 2.26983 6.34588C2.29554 6.02274 2.33068 5.89502 2.42411 5.79217C2.52183 5.68588 2.60926 5.64988 2.85097 5.61731C3.2444 5.56331 3.49383 5.46302 3.69954 5.27445C3.782 5.20639 3.84853 5.12108 3.89444 5.02452C3.94035 4.92796 3.96452 4.82251 3.96526 4.71559L3.97383 4.53559L3.87354 4.42074C3.51268 4.00245 0.0223986 0.999023 0.000112878 0.999023C-0.00417284 0.999023 0.114113 1.14731 0.264113 1.32817ZM1.10068 9.74102C1.14001 9.67157 1.1517 9.58985 1.13343 9.51216C1.11516 9.43447 1.06827 9.36652 1.00211 9.32188C0.873542 9.23617 0.672113 9.27731 0.672113 9.38788C0.672113 9.42217 0.69097 9.44702 0.733827 9.46845C0.805827 9.50531 0.81097 9.54645 0.754399 9.63131C0.69697 9.71617 0.702113 9.79074 0.767256 9.84217C0.872684 9.92359 1.02183 9.87902 1.10068 9.74102ZM4.22154 5.71245C4.03726 5.76817 3.85811 5.96274 3.80154 6.16674C3.76811 6.29102 3.78783 6.50959 3.8384 6.57645C3.92068 6.68531 3.99954 6.71359 4.21468 6.71274C4.63468 6.71017 4.99983 6.53102 5.04268 6.30645C5.07697 6.12302 4.91668 5.86931 4.69554 5.75702C4.54532 5.69603 4.3805 5.68053 4.22154 5.71245ZM4.71354 6.09388C4.77783 6.00217 4.74954 5.90359 4.63897 5.83674C4.42983 5.70902 4.11183 5.81445 4.11183 6.01159C4.11183 6.11017 4.27726 6.21731 4.42897 6.21731C4.53011 6.21731 4.66897 6.15731 4.71354 6.09388Z" fill="#4A4B4D"/>
</g>
<defs>
<clipPath id="clip0_1204_68516">
<rect width="12" height="12.8571" fill="white" transform="translate(0 0.571289)"/>
</clipPath>
</defs>
</svg>
