<svg width="17" height="16" viewBox="0 0 17 16" fill="none" xmlns="http://www.w3.org/2000/svg">
<g id="Frame" clip-path="url(#clip0_1246_91372)">
<g id="Group">
<g id="Group_2">
<path id="Vector" d="M8.51982 15.8705C6.4152 15.8691 4.39705 15.0328 2.90812 13.5452C1.41936 12.0577 0.581356 10.0403 0.578125 7.93569C0.581356 5.83092 1.41936 3.81338 2.90812 2.32569C4.39689 0.838154 6.41505 0.00169197 8.51982 0C10.6246 0.00169197 12.6427 0.838154 14.1315 2.32569C15.6204 3.81338 16.4583 5.83092 16.4615 7.93569C16.4583 10.0403 15.6203 12.0577 14.1315 13.5452C12.6426 15.0328 10.6244 15.8691 8.51982 15.8705ZM8.51982 0.610923C6.57705 0.612308 4.71412 1.38415 3.33982 2.75738C1.96551 4.13062 1.19197 5.99292 1.18905 7.93569C1.19089 9.87862 1.96412 11.7415 3.33874 13.1146C4.7132 14.488 6.57689 15.2594 8.51982 15.2594C10.4629 15.2594 12.3264 14.488 13.701 13.1146C15.0757 11.7415 15.8487 9.87862 15.8506 7.93569C15.8477 5.99292 15.0743 4.13062 13.6998 2.75738C12.3255 1.38415 10.4626 0.612308 8.51982 0.610923Z" fill="white" fill-opacity="0.8"/>
</g>
<g id="Group_3">
<path id="Vector_2" d="M9.52485 14.6149C7.78116 14.6137 6.109 13.9208 4.87562 12.6882C3.64224 11.4557 2.94808 9.78431 2.94531 8.04062C2.94808 6.29692 3.64224 4.62554 4.87562 3.39292C6.109 2.16062 7.78116 1.46754 9.52485 1.46631C11.2684 1.46754 12.9402 2.16062 14.1738 3.39292C15.4072 4.62554 16.1015 6.29692 16.1041 8.04062C16.1015 9.78431 15.4072 11.4557 14.1738 12.6882C12.9402 13.9208 11.2684 14.6137 9.52485 14.6149ZM9.52485 1.94077C7.907 1.94216 6.35577 2.58508 5.21147 3.72862C4.06716 4.87216 3.42316 6.42292 3.4207 8.04062C3.42347 9.65831 4.06762 11.2086 5.21177 12.3518C6.35608 13.4952 7.90731 14.1382 9.52485 14.1395C11.1424 14.1382 12.6933 13.4952 13.8376 12.3518C14.9819 11.2086 15.6261 9.65831 15.6287 8.04062C15.6261 6.42308 14.9819 4.87262 13.8376 3.72923C12.6933 2.58585 11.1424 1.94308 9.52485 1.94169V1.94077Z" fill="white" fill-opacity="0.8"/>
</g>
<g id="Group_4">
<path id="Vector_3" d="M10.5296 13.3602C9.14696 13.3593 7.82127 12.8096 6.84312 11.8324C5.86512 10.855 5.31465 9.52993 5.3125 8.14731C5.31465 6.7647 5.86512 5.43916 6.84312 4.46193C7.82127 3.4847 9.14696 2.93516 10.5296 2.93408C11.9123 2.93485 13.2382 3.48424 14.2162 4.46162C15.1943 5.439 15.7448 6.76454 15.7467 8.14731C15.7445 9.52993 15.194 10.855 14.2159 11.8324C13.2379 12.8096 11.9122 13.3593 10.5296 13.3602ZM10.5296 3.27316C9.23681 3.27393 7.99712 3.78762 7.08265 4.70131C6.16804 5.61516 5.65342 6.85439 5.65142 8.14716C5.65373 9.43977 6.1685 10.6789 7.08296 11.5924C7.99742 12.5059 9.23696 13.0193 10.5296 13.0201C11.8222 13.0193 13.0617 12.5059 13.9762 11.5924C14.8907 10.6789 15.4054 9.43977 15.4077 8.14716C15.4057 6.85439 14.8911 5.61516 13.9765 4.70131C13.062 3.78762 11.8223 3.27393 10.5296 3.27316Z" fill="white" fill-opacity="0.8"/>
</g>
<g id="Group_5">
<path id="Vector_4" d="M11.5306 12.105C10.509 12.1042 9.52947 11.6979 8.8067 10.9759C8.08409 10.2539 7.67747 9.27454 7.67578 8.25316C7.67717 7.23131 8.08378 6.25193 8.8064 5.52978C9.52917 4.80731 10.5089 4.40116 11.5306 4.40039C12.5524 4.40116 13.5321 4.80731 14.2547 5.52978C14.9775 6.25193 15.3839 7.23131 15.3853 8.25316C15.3838 9.27454 14.977 10.2539 14.2544 10.9759C13.5318 11.6979 12.5522 12.1042 11.5306 12.105ZM11.5306 4.60393C10.5629 4.6047 9.63501 4.98962 8.9504 5.67362C8.26594 6.35778 7.8807 7.28531 7.87947 8.25316C7.88101 9.2207 8.2664 10.1482 8.9507 10.8321C9.63532 11.5161 10.563 11.9004 11.5306 11.9013C12.4982 11.9004 13.4259 11.5161 14.1104 10.8321C14.7949 10.1482 15.1801 9.2207 15.1816 8.25316C15.1804 7.28531 14.7953 6.35778 14.1107 5.67362C13.4262 4.98962 12.4984 4.6047 11.5306 4.60393Z" fill="white" fill-opacity="0.8"/>
</g>
</g>
</g>
<defs>
<clipPath id="clip0_1246_91372">
<rect width="16" height="16" fill="white" transform="translate(0.5)"/>
</clipPath>
</defs>
</svg>
