<svg width="16" height="16" viewBox="0 0 16 16" fill="none" xmlns="http://www.w3.org/2000/svg">
<g id="Frame" clip-path="url(#clip0_1204_68499)">
<g id="Group">
<g id="Group_2">
<path id="Vector" d="M8.01786 15.8705C5.91325 15.8691 3.89509 15.0328 2.40617 13.5452C0.917402 12.0577 0.0794026 10.0403 0.0761719 7.93569C0.0794026 5.83092 0.917402 3.81338 2.40617 2.32569C3.89494 0.838154 5.91309 0.00169197 8.01786 0C10.1226 0.00169197 12.1408 0.838154 13.6296 2.32569C15.1185 3.81338 15.9563 5.83092 15.9596 7.93569C15.9563 10.0403 15.1183 12.0577 13.6296 13.5452C12.1406 15.0328 10.1225 15.8691 8.01786 15.8705ZM8.01786 0.610923C6.07509 0.612308 4.21217 1.38415 2.83786 2.75738C1.46356 4.13062 0.690018 5.99292 0.687094 7.93569C0.688941 9.87862 1.46217 11.7415 2.83679 13.1146C4.21125 14.488 6.07494 15.2594 8.01786 15.2594C9.96094 15.2594 11.8245 14.488 13.1991 13.1146C14.5737 11.7415 15.3468 9.87862 15.3486 7.93569C15.3457 5.99292 14.5723 4.13062 13.1979 2.75738C11.8236 1.38415 9.96063 0.612308 8.01786 0.610923Z" fill="#4A4B4D"/>
</g>
<g id="Group_3">
<path id="Vector_2" d="M9.0229 14.6154C7.2792 14.6142 5.60705 13.9213 4.37367 12.6886C3.14028 11.4562 2.44613 9.7848 2.44336 8.04111C2.44613 6.29741 3.14028 4.62603 4.37367 3.39341C5.60705 2.1611 7.2792 1.46803 9.0229 1.4668C10.7664 1.46803 12.4383 2.1611 13.6718 3.39341C14.9052 4.62603 15.5995 6.29741 15.6021 8.04111C15.5995 9.7848 14.9052 11.4562 13.6718 12.6886C12.4383 13.9213 10.7664 14.6142 9.0229 14.6154ZM9.0229 1.94126C7.40505 1.94264 5.85382 2.58557 4.70951 3.7291C3.56521 4.87264 2.92121 6.42341 2.91874 8.04111C2.92151 9.6588 3.56567 11.2091 4.70982 12.3523C5.85413 13.4957 7.40536 14.1386 9.0229 14.14C10.6404 14.1386 12.1914 13.4957 13.3357 12.3523C14.48 11.2091 15.1241 9.6588 15.1267 8.04111C15.1241 6.42357 14.48 4.87311 13.3357 3.72972C12.1914 2.58634 10.6404 1.94357 9.0229 1.94218V1.94126Z" fill="#4A4B4D"/>
</g>
<g id="Group_4">
<path id="Vector_3" d="M10.0257 13.3597C8.64306 13.3588 7.31736 12.8091 6.33921 11.8319C5.36121 10.8545 4.81075 9.52944 4.80859 8.14682C4.81075 6.76421 5.36121 5.43867 6.33921 4.46144C7.31736 3.48421 8.64306 2.93467 10.0257 2.93359C11.4084 2.93436 12.7343 3.48375 13.7123 4.46113C14.6904 5.43852 15.2409 6.76405 15.2427 8.14682C15.2406 9.52944 14.6901 10.8545 13.712 11.8319C12.734 12.8091 11.4083 13.3588 10.0257 13.3597ZM10.0257 3.27267C8.7329 3.27344 7.49321 3.78713 6.57875 4.70082C5.66413 5.61467 5.14952 6.8539 5.14752 8.14667C5.14982 9.43929 5.66459 10.6784 6.57906 11.5919C7.49352 12.5054 8.73306 13.0188 10.0257 13.0196C11.3183 13.0188 12.5578 12.5054 13.4723 11.5919C14.3867 10.6784 14.9015 9.43929 14.9038 8.14667C14.9018 6.8539 14.3872 5.61467 13.4726 4.70082C12.5581 3.78713 11.3184 3.27344 10.0257 3.27267Z" fill="#4A4B4D"/>
</g>
<g id="Group_5">
<path id="Vector_4" d="M11.0286 12.105C10.0071 12.1042 9.02752 11.6979 8.30475 10.9759C7.58214 10.2539 7.17552 9.27454 7.17383 8.25316C7.17521 7.23131 7.58183 6.25193 8.30444 5.52978C9.02721 4.80731 10.0069 4.40116 11.0286 4.40039C12.0504 4.40116 13.0301 4.80731 13.7528 5.52978C14.4755 6.25193 14.882 7.23131 14.8834 8.25316C14.8818 9.27454 14.4751 10.2539 13.7524 10.9759C13.0298 11.6979 12.0503 12.1042 11.0286 12.105ZM11.0286 4.60393C10.0609 4.6047 9.13306 4.98962 8.44844 5.67362C7.76398 6.35778 7.37875 7.28531 7.37752 8.25316C7.37906 9.2207 7.76444 10.1482 8.44875 10.8321C9.13337 11.5161 10.0611 11.9004 11.0286 11.9013C11.9963 11.9004 12.924 11.5161 13.6084 10.8321C14.2929 10.1482 14.6781 9.2207 14.6797 8.25316C14.6784 7.28531 14.2934 6.35778 13.6088 5.67362C12.9243 4.98962 11.9964 4.6047 11.0286 4.60393Z" fill="#4A4B4D"/>
</g>
</g>
</g>
<defs>
<clipPath id="clip0_1204_68499">
<rect width="16" height="16" fill="white"/>
</clipPath>
</defs>
</svg>
