<svg width="40" height="40" viewBox="0 0 40 40" fill="none" xmlns="http://www.w3.org/2000/svg">
<path d="M15.72 20.72C15.5793 20.5795 15.5002 20.3888 15.5 20.19V19.81C15.5023 19.6116 15.5811 19.4217 15.72 19.28L20.86 14.15C20.9539 14.0553 21.0817 14.0021 21.215 14.0021C21.3483 14.0021 21.4761 14.0553 21.57 14.15L22.28 14.86C22.3741 14.9521 22.4271 15.0783 22.4271 15.21C22.4271 15.3417 22.3741 15.4678 22.28 15.56L17.83 20L22.28 24.44C22.3747 24.5339 22.4279 24.6617 22.4279 24.795C22.4279 24.9283 22.3747 25.0561 22.28 25.15L21.57 25.85C21.4761 25.9446 21.3483 25.9979 21.215 25.9979C21.0817 25.9979 20.9539 25.9446 20.86 25.85L15.72 20.72Z" fill="#4A4B4D"/>
</svg>
