<svg width="24" height="24" viewBox="0 0 24 24" fill="none" xmlns="http://www.w3.org/2000/svg">
<path d="M20.4492 20.451H16.8933V14.8801C16.8933 13.5518 16.8693 11.8414 15.0435 11.8414C13.1914 11.8414 12.9078 13.2885 12.9078 14.7825V20.4506H9.35195V8.99746H12.7656V10.5628H12.8116C13.1533 9.97865 13.6471 9.49808 14.2403 9.17231C14.8334 8.84655 15.5039 8.68778 16.1802 8.71293C19.7844 8.71293 20.4492 11.084 20.4492 14.1683V20.451ZM5.33937 7.43162C4.93116 7.43171 4.53209 7.31073 4.19264 7.08399C3.85318 6.85725 3.58858 6.53493 3.4323 6.15779C3.27603 5.78065 3.23509 5.36563 3.31467 4.96522C3.39425 4.56482 3.59078 4.197 3.87939 3.9083C4.16801 3.6196 4.53575 3.42297 4.93611 3.3433C5.33646 3.26362 5.75146 3.30447 6.1286 3.46067C6.50574 3.61688 6.8281 3.88143 7.0549 4.22086C7.28169 4.56029 7.40275 4.95937 7.40275 5.36761C7.40275 5.91494 7.18537 6.43986 6.79843 6.82692C6.41148 7.21398 5.88665 7.43149 5.33937 7.43162ZM7.11732 20.4506H3.55774V8.99746H7.11778L7.11732 20.4506ZM22.2202 0.00156006H1.77058C1.54054 -0.00123647 1.3122 0.0413737 1.09864 0.126951C0.885082 0.212529 0.690501 0.339393 0.526035 0.500279C0.36157 0.661166 0.230452 0.852915 0.140187 1.06455C0.049922 1.27618 0.00228364 1.50354 0 1.73361V22.2678C0.00546415 22.7323 0.195058 23.1756 0.527133 23.5003C0.859207 23.8251 1.3066 24.0048 1.77104 23.9998H22.2202C22.6859 24.0061 23.135 23.8272 23.4687 23.5024C23.8025 23.1776 23.9936 22.7335 24 22.2678V1.72993C23.9933 1.26452 23.8021 0.82082 23.4683 0.496432C23.1345 0.172044 22.6856 -0.00646243 22.2202 0.000178898" fill="white"/>
</svg>
