<svg width="56" height="56" viewBox="0 0 56 56" fill="none" xmlns="http://www.w3.org/2000/svg">
<rect width="56" height="56" rx="8" fill="#FCFDFE"/>
<path d="M36.4492 36.451H32.8933V30.8801C32.8933 29.5518 32.8693 27.8414 31.0435 27.8414C29.1914 27.8414 28.9078 29.2885 28.9078 30.7825V36.4506H25.352V24.9975H28.7656V26.5628H28.8116C29.1533 25.9787 29.6471 25.4981 30.2403 25.1723C30.8334 24.8465 31.5039 24.6878 32.1802 24.7129C35.7844 24.7129 36.4492 27.084 36.4492 30.1683V36.451ZM21.3394 23.4316C20.9312 23.4317 20.5321 23.3107 20.1926 23.084C19.8532 22.8573 19.5886 22.5349 19.4323 22.1578C19.276 21.7806 19.2351 21.3656 19.3147 20.9652C19.3943 20.5648 19.5908 20.197 19.8794 19.9083C20.168 19.6196 20.5357 19.423 20.9361 19.3433C21.3365 19.2636 21.7515 19.3045 22.1286 19.4607C22.5057 19.6169 22.8281 19.8814 23.0549 20.2209C23.2817 20.5603 23.4027 20.9594 23.4027 21.3676C23.4027 21.9149 23.1854 22.4399 22.7984 22.8269C22.4115 23.214 21.8867 23.4315 21.3394 23.4316ZM23.1173 36.4506H19.5577V24.9975H23.1178L23.1173 36.4506ZM38.2202 16.0016H17.7706C17.5405 15.9988 17.3122 16.0414 17.0986 16.127C16.8851 16.2125 16.6905 16.3394 16.526 16.5003C16.3616 16.6612 16.2305 16.8529 16.1402 17.0645C16.0499 17.2762 16.0023 17.5035 16 17.7336V38.2678C16.0055 38.7323 16.1951 39.1756 16.5271 39.5003C16.8592 39.8251 17.3066 40.0048 17.771 39.9998H38.2202C38.6859 40.0061 39.135 39.8272 39.4687 39.5024C39.8025 39.1776 39.9936 38.7335 40 38.2678V17.7299C39.9933 17.2645 39.8021 16.8208 39.4683 16.4964C39.1345 16.172 38.6856 15.9935 38.2202 16.0002" fill="#0C0C0D"/>
</svg>
