<svg width="56" height="56" viewBox="0 0 56 56" fill="none" xmlns="http://www.w3.org/2000/svg">
<rect width="56" height="56" rx="8" fill="#FCFDFE"/>
<path d="M29.138 27.8181C29.138 31.5835 26.1073 34.636 22.3689 34.636C18.6306 34.636 15.5996 31.5835 15.5996 27.8181C15.5996 24.0527 18.6303 21 22.3689 21C26.1075 21 29.138 24.0527 29.138 27.8181Z" fill="#0C0C0D"/>
<path d="M36.5662 27.8181C36.5662 31.3625 35.0508 34.2368 33.1815 34.2368C31.3122 34.2368 29.7969 31.3625 29.7969 27.8181C29.7969 24.2738 31.312 21.3994 33.1813 21.3994C35.0506 21.3994 36.566 24.2729 36.566 27.8181" fill="#0C0C0D"/>
<path d="M39.5993 27.8179C39.5993 30.9927 39.0664 33.5681 38.4089 33.5681C37.7514 33.5681 37.2188 30.9934 37.2188 27.8179C37.2188 24.6424 37.7516 22.0677 38.4089 22.0677C39.0662 22.0677 39.5993 24.6421 39.5993 27.8179Z" fill="#0C0C0D"/>
</svg>
