<svg xmlns="http://www.w3.org/2000/svg" width="16" height="16" viewBox="0 0 16 16" fill="none">
<path d="M7.33333 1.99992H5.2C4.0799 1.99992 3.51984 1.99992 3.09202 2.21791C2.71569 2.40965 2.40973 2.71561 2.21799 3.09194C2 3.51976 2 4.07981 2 5.19992V10.7999C2 11.92 2 12.4801 2.21799 12.9079C2.40973 13.2842 2.71569 13.5902 3.09202 13.7819C3.51984 13.9999 4.07989 13.9999 5.2 13.9999H10.8C11.9201 13.9999 12.4802 13.9999 12.908 13.7819C13.2843 13.5902 13.5903 13.2842 13.782 12.9079C14 12.4801 14 11.92 14 10.7999V8.66659M8 5.33325H10.6667V7.99992M10.3333 2.33325V1.33325M12.9596 3.04036L13.6667 2.33325M13.6735 5.66659H14.6735M2 8.89799C2.43463 8.9651 2.87991 8.99992 3.33333 8.99992C6.25757 8.99992 8.84355 7.55165 10.4131 5.33325" stroke="#0C0C0D" stroke-width="1.33" stroke-linecap="round" stroke-linejoin="round"/>
</svg>