<svg width="56" height="56" viewBox="0 0 56 56" fill="none" xmlns="http://www.w3.org/2000/svg">
<g id="Frame 1261152787">
<rect width="56" height="56" rx="8" fill="#17181A"/>
<path id="Subtract" fill-rule="evenodd" clip-rule="evenodd" d="M37.3768 34.6673C38.6954 32.694 39.3993 30.374 39.3994 28.0007C39.3995 26.4247 39.0892 24.8641 38.4861 23.4081C37.883 21.9521 36.9991 20.6291 35.8847 19.5147C34.7703 18.4003 33.4473 17.5164 31.9913 16.9133C30.5353 16.3103 28.9747 15.9999 27.3987 16C25.0254 16.0001 22.7054 16.704 20.7322 18.0226C18.7589 19.3413 17.2209 21.2154 16.3127 23.4081C15.4046 25.6008 15.167 28.0135 15.63 30.3412C16.0931 32.669 17.2359 34.8071 18.9141 36.4853C20.5923 38.1635 22.7305 39.3063 25.0582 39.7694C27.3859 40.2324 29.7986 39.9948 31.9913 39.0867C34.184 38.1785 36.0581 36.6405 37.3768 34.6673ZM35.1048 27.0361C35.2944 27.322 35.3956 27.6574 35.3959 28.0005C35.3957 28.339 35.2972 28.6702 35.1125 28.9539C34.9277 29.2376 34.6646 29.4617 34.355 29.5989C34.382 29.7729 34.3956 29.9488 34.3958 30.1248C34.3958 32.817 31.2614 35.0002 27.3957 35.0002C23.53 35.0002 20.3956 32.817 20.3956 30.1248C20.396 29.9476 20.4101 29.7706 20.4378 29.5955C20.2047 29.4915 19.9972 29.3377 19.8299 29.145C19.6626 28.9522 19.5395 28.7252 19.4692 28.4799C19.3989 28.2345 19.3832 27.9767 19.4231 27.7246C19.4631 27.4725 19.5577 27.2322 19.7003 27.0206C19.843 26.809 20.0302 26.6311 20.2489 26.4995C20.4676 26.3679 20.7125 26.2858 20.9663 26.2589C21.2201 26.2319 21.4767 26.2609 21.7181 26.3437C21.9596 26.4264 22.18 26.5611 22.3638 26.7381C23.5749 25.8679 25.2499 25.3073 27.1127 25.2556L28.0026 21.0708C28.0112 21.0305 28.0276 20.9924 28.051 20.9586C28.0743 20.9247 28.1041 20.8958 28.1386 20.8734C28.1729 20.8509 28.2113 20.8355 28.2516 20.828C28.2919 20.8205 28.3333 20.8212 28.3734 20.8299L31.2819 21.4477C31.4167 21.1744 31.6466 20.9597 31.9284 20.8439C32.2102 20.728 32.5246 20.7189 32.8127 20.8183C33.1007 20.9176 33.3426 21.1187 33.4931 21.3836C33.6435 21.6486 33.6921 21.9594 33.6298 22.2576C33.5675 22.5559 33.3986 22.8212 33.1546 23.0038C32.9107 23.1864 32.6085 23.2738 32.3048 23.2495C32.0011 23.2253 31.7166 23.0911 31.5047 22.8721C31.2929 22.6531 31.1681 22.3644 31.154 22.06L28.5496 21.5062L27.7522 25.2597C29.5878 25.3236 31.2356 25.8815 32.4323 26.7449C32.6791 26.5064 32.9906 26.3458 33.328 26.2831C33.6653 26.2204 34.0137 26.2583 34.3297 26.3922C34.6456 26.5261 34.9152 26.7501 35.1048 27.0361ZM35.3959 28.0005C35.3959 28.0006 35.3959 28.0007 35.3959 28.0008V28.0001C35.3959 28.0002 35.3959 28.0004 35.3959 28.0005ZM23.6086 28.5563C23.4713 28.7618 23.398 29.0034 23.398 29.2506C23.3985 29.582 23.5305 29.8997 23.7649 30.134C23.9993 30.3683 24.317 30.5 24.6485 30.5004C24.8956 30.5003 25.1372 30.4268 25.3426 30.2894C25.5481 30.152 25.7081 29.9568 25.8026 29.7284C25.8971 29.5 25.9218 29.2487 25.8735 29.0063C25.8252 28.764 25.7061 28.5413 25.5313 28.3666C25.3565 28.1919 25.1338 28.0729 24.8913 28.0248C24.6489 27.9766 24.3977 28.0014 24.1693 28.096C23.941 28.1906 23.7459 28.3508 23.6086 28.5563ZM27.3998 33.4715C27.8801 33.4715 29.515 33.4055 30.3681 32.5537C30.3994 32.5239 30.4243 32.4882 30.4415 32.4487C30.4588 32.4091 30.4679 32.3665 30.4684 32.3234C30.469 32.2803 30.4609 32.2375 30.4447 32.1975C30.4285 32.1576 30.4044 32.1212 30.374 32.0907C30.3435 32.0602 30.3073 32.036 30.2673 32.0197C30.2274 32.0033 30.1847 31.9951 30.1415 31.9955C30.0984 31.9959 30.0558 32.005 30.0162 32.0221C29.9766 32.0392 29.9408 32.064 29.911 32.0951C29.3728 32.6333 28.2216 32.8238 27.3998 32.8238C26.5779 32.8238 25.4275 32.6333 24.89 32.0951C24.8599 32.065 24.8242 32.0411 24.7849 32.0248C24.7456 32.0085 24.7035 32.0001 24.6609 32.0001C24.6184 32 24.5763 32.0084 24.5369 32.0246C24.4976 32.0409 24.4619 32.0647 24.4318 32.0948C24.4017 32.1249 24.3778 32.1606 24.3614 32.1999C24.3451 32.2392 24.3367 32.2813 24.3367 32.3238C24.3367 32.3664 24.345 32.4085 24.3613 32.4478C24.3775 32.4872 24.4014 32.5229 24.4314 32.553C25.2839 33.4034 26.9195 33.4715 27.3998 33.4715ZM29.454 30.2898C29.6596 30.4271 29.9012 30.5004 30.1484 30.5004C30.4798 30.5 30.7974 30.3682 31.0317 30.1339C31.266 29.8996 31.3978 29.5819 31.3982 29.2506C31.3982 29.0034 31.3249 28.7618 31.1876 28.5562C31.0502 28.3507 30.855 28.1905 30.6267 28.0959C30.3983 28.0013 30.147 27.9766 29.9046 28.0248C29.6621 28.073 29.4394 28.1921 29.2647 28.3668C29.0899 28.5416 28.9708 28.7643 28.9226 29.0068C28.8744 29.2492 28.8991 29.5005 28.9937 29.7289C29.0883 29.9572 29.2485 30.1524 29.454 30.2898Z" fill="white"/>
</g>
</svg>
