<svg width="25" height="24" viewBox="0 0 25 24" fill="none" xmlns="http://www.w3.org/2000/svg">
<path fill-rule="evenodd" clip-rule="evenodd" d="M22.3768 18.6673C23.6954 16.694 24.3993 14.374 24.3994 12.0007C24.3995 10.4247 24.0892 8.86414 23.4861 7.40811C22.883 5.95208 21.9991 4.6291 20.8847 3.51472C19.7703 2.40033 18.4473 1.51637 16.9913 0.913315C15.5353 0.310257 13.9747 -8.92957e-05 12.3987 1.92726e-08C10.0254 0.000134619 7.70544 0.704019 5.73215 2.02265C3.75887 3.34128 2.2209 5.21543 1.31273 7.40811C0.404568 9.60079 0.166985 12.0135 0.630029 14.3412C1.09307 16.669 2.23595 18.8071 3.91414 20.4853C5.59233 22.1635 7.73046 23.3063 10.0582 23.7694C12.3859 24.2324 14.7986 23.9948 16.9913 23.0867C19.184 22.1785 21.0581 20.6405 22.3768 18.6673ZM20.1048 11.0361C20.2944 11.322 20.3956 11.6574 20.3959 12.0005C20.3957 12.339 20.2972 12.6702 20.1125 12.9539C19.9277 13.2376 19.6646 13.4617 19.355 13.5989C19.382 13.7729 19.3956 13.9488 19.3958 14.1248C19.3958 16.817 16.2614 19.0002 12.3957 19.0002C8.52996 19.0002 5.39559 16.817 5.39559 14.1248C5.39603 13.9476 5.41013 13.7706 5.43777 13.5955C5.20471 13.4915 4.99724 13.3377 4.82992 13.145C4.6626 12.9522 4.53948 12.7252 4.46921 12.4799C4.39894 12.2345 4.38322 11.9767 4.42315 11.7246C4.46308 11.4725 4.55769 11.2322 4.70035 11.0206C4.843 10.809 5.03024 10.6311 5.24894 10.4995C5.46763 10.3679 5.71247 10.2858 5.96627 10.2589C6.22008 10.2319 6.4767 10.2609 6.71814 10.3437C6.95957 10.4264 7.17996 10.5611 7.36384 10.7381C8.57486 9.86789 10.2499 9.30729 12.1127 9.25558L13.0026 5.07075C13.0112 5.03054 13.0276 4.99241 13.051 4.95856C13.0743 4.9247 13.1041 4.89578 13.1386 4.87345C13.1729 4.85091 13.2113 4.83545 13.2516 4.82797C13.2919 4.8205 13.3333 4.82115 13.3734 4.82991L16.2819 5.44766C16.4167 5.17442 16.6466 4.95974 16.9284 4.84387C17.2102 4.728 17.5246 4.7189 17.8127 4.81827C18.1007 4.91764 18.3426 5.11866 18.4931 5.38364C18.6435 5.64862 18.6921 5.95938 18.6298 6.25765C18.5675 6.55592 18.3986 6.82122 18.1546 7.00383C17.9107 7.18643 17.6085 7.2738 17.3048 7.24955C17.0011 7.2253 16.7166 7.0911 16.5047 6.8721C16.2929 6.65311 16.1681 6.36436 16.154 6.05998L13.5496 5.50617L12.7522 9.25966C14.5878 9.32361 16.2356 9.8815 17.4323 10.7449C17.6791 10.5064 17.9906 10.3458 18.328 10.2831C18.6653 10.2204 19.0137 10.2583 19.3297 10.3922C19.6456 10.5261 19.9152 10.7501 20.1048 11.0361ZM20.3959 12.0005C20.3959 12.0006 20.3959 12.0007 20.3959 12.0008V12.0001C20.3959 12.0002 20.3959 12.0004 20.3959 12.0005ZM8.60855 12.5563C8.47125 12.7618 8.39797 13.0034 8.39797 13.2506C8.39851 13.582 8.53045 13.8997 8.76487 14.134C8.99928 14.3683 9.31703 14.5 9.64845 14.5004C9.89561 14.5003 10.1372 14.4268 10.3426 14.2894C10.5481 14.152 10.7081 13.9568 10.8026 13.7284C10.8971 13.5 10.9218 13.2487 10.8735 13.0063C10.8252 12.764 10.7061 12.5413 10.5313 12.3666C10.3565 12.1919 10.1338 12.0729 9.89135 12.0248C9.64893 11.9766 9.39767 12.0014 9.16934 12.096C8.94101 12.1906 8.74585 12.3508 8.60855 12.5563ZM12.3998 17.4715C12.8801 17.4715 14.515 17.4055 15.3681 16.5537C15.3994 16.5239 15.4243 16.4882 15.4415 16.4487C15.4588 16.4091 15.4679 16.3665 15.4684 16.3234C15.469 16.2803 15.4609 16.2375 15.4447 16.1975C15.4285 16.1576 15.4044 16.1212 15.374 16.0907C15.3435 16.0602 15.3073 16.036 15.2673 16.0197C15.2274 16.0033 15.1847 15.9951 15.1415 15.9955C15.0984 15.9959 15.0558 16.005 15.0162 16.0221C14.9766 16.0392 14.9408 16.064 14.911 16.0951C14.3728 16.6333 13.2216 16.8238 12.3998 16.8238C11.5779 16.8238 10.4275 16.6333 9.88998 16.0951C9.85991 16.065 9.82421 16.0411 9.78491 16.0248C9.74562 16.0085 9.70349 16.0001 9.66094 16.0001C9.61839 16 9.57625 16.0084 9.53693 16.0246C9.49761 16.0409 9.46187 16.0647 9.43176 16.0948C9.40165 16.1249 9.37776 16.1606 9.36145 16.1999C9.34514 16.2392 9.33672 16.2813 9.33669 16.3238C9.33666 16.3664 9.34501 16.4085 9.36126 16.4478C9.37752 16.4872 9.40136 16.5229 9.43142 16.553C10.2839 17.4034 11.9195 17.4715 12.3998 17.4715ZM14.454 14.2898C14.6596 14.4271 14.9012 14.5004 15.1484 14.5004C15.4798 14.5 15.7974 14.3682 16.0317 14.1339C16.266 13.8996 16.3978 13.5819 16.3982 13.2506C16.3982 13.0034 16.3249 12.7618 16.1876 12.5562C16.0502 12.3507 15.855 12.1905 15.6267 12.0959C15.3983 12.0013 15.147 11.9766 14.9046 12.0248C14.6621 12.073 14.4394 12.1921 14.2647 12.3668C14.0899 12.5416 13.9708 12.7643 13.9226 13.0068C13.8744 13.2492 13.8991 13.5005 13.9937 13.7289C14.0883 13.9572 14.2485 14.1524 14.454 14.2898Z" fill="#0C0C0D"/>
</svg>
