<svg width="16" height="16" viewBox="0 0 16 16" fill="none" xmlns="http://www.w3.org/2000/svg">
<path d="M15 0.999788C15 0.596662 14.7563 0.231037 14.3813 0.0747866C14.0063 -0.0814635 13.5781 0.00603656 13.2906 0.290412L11.9281 1.65604C10.4281 3.15604 8.39375 3.99979 6.27187 3.99979H6H5H2C0.896875 3.99979 0 4.89667 0 5.99979V8.9998C0 10.1029 0.896875 10.9998 2 10.9998V14.9998C2 15.5529 2.44688 15.9998 3 15.9998H5C5.55312 15.9998 6 15.5529 6 14.9998V10.9998H6.27187C8.39375 10.9998 10.4281 11.8436 11.9281 13.3436L13.2906 14.7061C13.5781 14.9936 14.0063 15.0779 14.3813 14.9217C14.7563 14.7654 15 14.4029 15 13.9967V9.3873C15.5813 9.1123 16 8.37167 16 7.4998C16 6.62792 15.5813 5.88729 15 5.61229V0.999788ZM13 3.39667V7.4998V11.6029C11.1625 9.93105 8.76562 8.9998 6.27187 8.9998H6V5.99979H6.27187C8.76562 5.99979 11.1625 5.06854 13 3.39667Z" fill="#2ED3B7"/>
</svg>
