<svg width="40" height="40" viewBox="0 0 40 40" fill="none" xmlns="http://www.w3.org/2000/svg">
<path d="M23.28 20.72C23.4207 20.5795 23.4998 20.3888 23.5 20.19V19.81C23.4977 19.6116 23.4189 19.4217 23.28 19.28L18.14 14.15C18.0461 14.0553 17.9183 14.0021 17.785 14.0021C17.6517 14.0021 17.5239 14.0553 17.43 14.15L16.72 14.86C16.6259 14.9521 16.5729 15.0783 16.5729 15.21C16.5729 15.3417 16.6259 15.4678 16.72 15.56L21.17 20L16.72 24.44C16.6253 24.5339 16.5721 24.6617 16.5721 24.795C16.5721 24.9283 16.6253 25.0561 16.72 25.15L17.43 25.85C17.5239 25.9446 17.6517 25.9979 17.785 25.9979C17.9183 25.9979 18.0461 25.9446 18.14 25.85L23.28 20.72Z" fill="#4A4B4D"/>
</svg>
