<svg width="43" height="38" viewBox="0 0 43 38" fill="none" xmlns="http://www.w3.org/2000/svg">
<path d="M42.5338 29.5879L35.6004 36.8545C35.4497 37.0123 35.2673 37.1382 35.0646 37.2242C34.862 37.3102 34.6434 37.3545 34.4225 37.3544H1.55492C1.39809 37.3544 1.24467 37.3096 1.11353 37.2256C0.982384 37.1415 0.879219 37.0219 0.816708 36.8813C0.754197 36.7408 0.735064 36.5854 0.761659 36.4344C0.788255 36.2834 0.859421 36.1432 0.966413 36.0311L7.90501 28.7646C8.05534 28.6072 8.23711 28.4816 8.43908 28.3956C8.6411 28.3096 8.859 28.265 9.07935 28.2646H41.9451C42.1019 28.2646 42.2553 28.3094 42.3866 28.3935C42.5176 28.4775 42.6207 28.5972 42.6835 28.7377C42.7459 28.8783 42.765 29.0336 42.7384 29.1846C42.7118 29.3357 42.6406 29.4759 42.5338 29.5879ZM35.6004 14.9551C35.4497 14.7973 35.2673 14.6714 35.0646 14.5854C34.862 14.4994 34.6434 14.4551 34.4225 14.4552H1.55492C1.39809 14.4552 1.24467 14.5 1.11353 14.584C0.982384 14.6681 0.879219 14.7877 0.816708 14.9283C0.754197 15.0688 0.735064 15.2242 0.761659 15.3752C0.788255 15.5262 0.859421 15.6664 0.966413 15.7785L7.90501 23.045C8.05534 23.2025 8.23711 23.328 8.43908 23.414C8.6411 23.5 8.859 23.5446 9.07935 23.5449H41.9451C42.1019 23.5449 42.2553 23.5002 42.3866 23.4161C42.5176 23.3321 42.6207 23.2124 42.6835 23.0719C42.7459 22.9313 42.765 22.776 42.7384 22.6249C42.7118 22.4739 42.6406 22.3338 42.5338 22.2217L35.6004 14.9551ZM1.55492 9.73553H34.4225C34.6434 9.73561 34.862 9.69131 35.0646 9.60529C35.2673 9.51928 35.4497 9.39342 35.6004 9.23558L42.5338 1.96901C42.6406 1.85696 42.7118 1.7168 42.7384 1.56576C42.765 1.41472 42.7459 1.25938 42.6835 1.11883C42.6207 0.97827 42.5176 0.858619 42.3866 0.774576C42.2553 0.690532 42.1019 0.645757 41.9451 0.645752H9.07935C8.859 0.646118 8.6411 0.690678 8.43908 0.776672C8.23711 0.862666 8.05534 0.988263 7.90501 1.14569L0.968202 8.41226C0.861313 8.52418 0.790179 8.66422 0.763523 8.81506C0.736867 8.96594 0.755848 9.12115 0.818138 9.26165C0.880429 9.40214 0.983321 9.52178 1.1142 9.60596C1.24507 9.69014 1.39824 9.73515 1.55492 9.73553Z" fill="url(#paint0_linear_1_1075)"/>
<defs>
<linearGradient id="paint0_linear_1_1075" x1="4.29529" y1="38.2293" x2="37.877" y2="-0.508562" gradientUnits="userSpaceOnUse">
<stop offset="0.08" stop-color="#9945FF"/>
<stop offset="0.3" stop-color="#8752F3"/>
<stop offset="0.5" stop-color="#5497D5"/>
<stop offset="0.6" stop-color="#43B4CA"/>
<stop offset="0.72" stop-color="#28E0B9"/>
<stop offset="0.97" stop-color="#19FB9B"/>
</linearGradient>
</defs>
</svg>
