<svg xmlns="http://www.w3.org/2000/svg" viewBox="0 0 60 60" style="enable-background:new 0 0 256 256" xml:space="preserve" width="60" height="60"><path cx="128" cy="128" r="128" style="fill:#6fbcf0" d="M60 30A30 30 0 0 1 30 60A30 30 0 0 1 0 30A30 30 0 0 1 60 30z"/><path d="M15.609 45.609c3 5.203 8.391 8.32 14.391 8.32s11.391 -3.117 14.391 -8.32c3 -5.203 3 -11.414 0 -16.617l-12.656 -21.938c-0.773 -1.336 -2.695 -1.336 -3.469 0l-12.656 21.938c-3.023 5.203 -3.023 11.414 0 16.617zm10.828 -28.125 2.695 -4.688c0.375 -0.656 1.359 -0.656 1.734 0l10.383 18c1.898 3.305 2.273 7.125 1.078 10.641 -0.117 -0.563 -0.305 -1.148 -0.539 -1.734 -1.43 -3.633 -4.688 -6.422 -9.656 -8.297 -3.422 -1.289 -5.602 -3.211 -6.469 -5.672 -1.125 -3.188 0.07 -6.656 0.773 -8.25zm-4.617 7.969L18.75 30.797c-2.344 4.078 -2.344 8.93 0 13.008s6.563 6.492 11.25 6.492c3.117 0 6.023 -1.078 8.32 -2.977 0.305 -0.75 1.219 -3.492 0.07 -6.328 -1.055 -2.625 -3.586 -4.711 -7.547 -6.211 -4.453 -1.688 -7.359 -4.336 -8.625 -7.852 -0.164 -0.492 -0.281 -0.984 -0.398 -1.477z" style="fill-rule:evenodd;clip-rule:evenodd;fill:#fff;stroke:#fff;stroke-width:5.8052;stroke-opacity:0"/></svg>