<svg width="16" height="16" viewBox="0 0 16 16" fill="none" xmlns="http://www.w3.org/2000/svg">
<path d="M1.66706 8.66683H5.66706M10.3337 8.66683H14.3337M8.0004 4.66683V14.0002M8.0004 4.66683C8.92087 4.66683 9.66706 3.92064 9.66706 3.00016M8.0004 4.66683C7.07992 4.66683 6.33373 3.92064 6.33373 3.00016M2.66706 14.0002L13.3337 14.0002M2.66706 3.00017L6.33373 3.00016M6.33373 3.00016C6.33373 2.07969 7.07992 1.3335 8.0004 1.3335C8.92087 1.3335 9.66706 2.07969 9.66706 3.00016M9.66706 3.00016L13.3337 3.00016M5.92069 9.55774C5.65356 10.5806 4.7458 11.3335 3.66706 11.3335C2.58833 11.3335 1.68057 10.5806 1.41344 9.55774C1.39161 9.47416 1.3807 9.43238 1.37965 9.26541C1.379 9.16306 1.41704 8.92707 1.44981 8.83011C1.50327 8.67193 1.56114 8.58264 1.67687 8.40408L3.66706 5.3335L5.65726 8.40408C5.77299 8.58264 5.83086 8.67193 5.88432 8.83011C5.91709 8.92707 5.95513 9.16306 5.95448 9.26541C5.95343 9.43238 5.94252 9.47416 5.92069 9.55774ZM14.5874 9.55774C14.3202 10.5806 13.4125 11.3335 12.3337 11.3335C11.255 11.3335 10.3472 10.5806 10.0801 9.55774C10.0583 9.47416 10.0474 9.43238 10.0463 9.26541C10.0457 9.16306 10.0837 8.92707 10.1165 8.83011C10.1699 8.67193 10.2278 8.58264 10.3435 8.40408L12.3337 5.3335L14.3239 8.40408C14.4397 8.58264 14.4975 8.67193 14.551 8.83011C14.5838 8.92707 14.6218 9.16306 14.6211 9.26541C14.6201 9.43238 14.6092 9.47416 14.5874 9.55774Z" stroke="#2ED3B7" stroke-width="1.33333" stroke-linecap="round" stroke-linejoin="round"/>
</svg>
