<svg width="56" height="56" viewBox="0 0 56 56" fill="none" xmlns="http://www.w3.org/2000/svg">
<g id="Frame 1261152785">
<rect width="56" height="56" rx="8" fill="#17181A"/>
<path id="Subtract" fill-rule="evenodd" clip-rule="evenodd" d="M28.2002 40C34.8272 40 40.2002 34.627 40.2002 28C40.2002 21.373 34.8272 16 28.2002 16C21.5732 16 16.2002 21.373 16.2002 28C16.2002 34.627 21.5732 40 28.2002 40ZM30.9865 23.4714C29.9132 23.9171 24.7539 26.0597 20.7299 27.8299C19.6841 28.2901 19.4285 28.7689 20.5055 29.1385C20.5311 29.1474 20.5605 29.1575 20.5932 29.1688C20.917 29.2804 21.5707 29.5059 22.2389 29.6977C23.2121 29.9773 23.7545 29.8015 24.3191 29.4181C24.6929 29.1643 27.6293 27.2149 29.7473 25.8103C29.9849 25.6525 30.2435 25.9759 30.0377 26.1727C28.4663 27.6715 26.4497 29.5975 26.1419 29.8987C25.3111 30.7116 25.915 31.1401 26.407 31.489C26.427 31.5033 26.4469 31.5174 26.4665 31.5313C27.0143 31.9231 29.5373 33.5917 30.0371 33.9217C31.0763 34.6075 31.7375 34.4197 32.0321 32.8345C32.3773 30.9767 32.7835 28.3357 33.0717 26.4621C33.1981 25.6401 33.3018 24.9657 33.3677 24.5701C33.6683 22.7653 33.0653 22.6093 31.1003 23.4241C31.0699 23.4368 31.0319 23.4526 30.9865 23.4714Z" fill="white"/>
</g>
</svg>
