<svg width="25" height="24" viewBox="0 0 25 24" fill="none" xmlns="http://www.w3.org/2000/svg">
<path fill-rule="evenodd" clip-rule="evenodd" d="M12.2002 24C18.8272 24 24.2002 18.627 24.2002 12C24.2002 5.373 18.8272 0 12.2002 0C5.5732 0 0.200195 5.373 0.200195 12C0.200195 18.627 5.5732 24 12.2002 24ZM14.9865 7.47138C13.9132 7.91713 8.75395 10.0597 4.72985 11.8299C3.68405 12.2901 3.42845 12.7689 4.50545 13.1385C4.53111 13.1474 4.56045 13.1575 4.59317 13.1688C4.91699 13.2804 5.57075 13.5059 6.23885 13.6977C7.21205 13.9773 7.75445 13.8015 8.31905 13.4181C8.69285 13.1643 11.6293 11.2149 13.7473 9.81034C13.9849 9.65254 14.2435 9.97594 14.0377 10.1727C12.4663 11.6715 10.4497 13.5975 10.1419 13.8987C9.31112 14.7116 9.91504 15.1401 10.407 15.489C10.427 15.5033 10.4469 15.5174 10.4665 15.5313C11.0143 15.9231 13.5373 17.5917 14.0371 17.9217C15.0763 18.6075 15.7375 18.4197 16.0321 16.8345C16.3773 14.9767 16.7835 12.3357 17.0717 10.4621C17.1981 9.64006 17.3018 8.96574 17.3677 8.57014C17.6683 6.76534 17.0653 6.60934 15.1003 7.42414C15.0699 7.43676 15.0319 7.45256 14.9865 7.47138Z" fill="#0C0C0D"/>
</svg>
