<svg width="56" height="56" viewBox="0 0 56 56" fill="none" xmlns="http://www.w3.org/2000/svg">
<g id="Frame 1261152783">
<rect width="56" height="56" rx="8" fill="#17181A"/>
<g id="Kana Labs Twitter">
<path id="twitter" d="M23.5475 37.501C32.6042 37.501 37.5578 29.9978 37.5578 23.491C37.5578 23.2778 37.5578 23.0657 37.5434 22.8545C38.507 22.1574 39.3389 21.2944 40 20.3057C39.1013 20.7039 38.148 20.9651 37.1718 21.0804C38.1998 20.465 38.9691 19.4972 39.3366 18.3569C38.3701 18.9305 37.3126 19.3347 36.2099 19.5521C35.4675 18.7627 34.4856 18.24 33.4162 18.0648C32.3468 17.8897 31.2494 18.0718 30.294 18.5832C29.3385 19.0945 28.5782 19.9065 28.1307 20.8934C27.6833 21.8804 27.5735 22.9873 27.8186 24.0429C25.8609 23.9448 23.9457 23.4361 22.1974 22.5498C20.4491 21.6635 18.9067 20.4194 17.6704 18.8984C17.0407 19.9823 16.8479 21.2656 17.1311 22.4867C17.4143 23.7079 18.1523 24.7753 19.1949 25.4714C18.4113 25.4482 17.6447 25.2368 16.96 24.8551C16.96 24.8753 16.96 24.8964 16.96 24.9175C16.9603 26.0543 17.3539 27.1561 18.0739 28.0358C18.7939 28.9156 19.7961 29.5192 20.9104 29.7443C20.1855 29.942 19.4249 29.9709 18.687 29.8288C19.0017 30.8072 19.6143 31.6628 20.4391 32.2759C21.2639 32.889 22.2598 33.229 23.2874 33.2483C21.5437 34.6186 19.3898 35.3625 17.1722 35.3603C16.7804 35.3595 16.389 35.3358 16 35.2892C18.2518 36.7343 20.8719 37.5008 23.5475 37.4972" fill="white"/>
</g>
</g>
</svg>
