<svg width="32" height="32" viewBox="0 0 32 32" fill="none" xmlns="http://www.w3.org/2000/svg">
<g id="imageusd-coin-usdc-logo.svg" clip-path="url(#clip0_1246_91291)">
<path id="Vector" d="M16.0005 32.0005C24.8675 32.0005 32.001 24.867 32.001 16C32.001 7.13302 24.8675 -0.000488281 16.0005 -0.000488281C7.13351 -0.000488281 0 7.13302 0 16C0 24.867 7.13351 32.0005 16.0005 32.0005Z" fill="#2775CA"/>
<path id="Vector_2" d="M20.4004 18.5331C20.4004 16.1998 19.0003 15.3998 16.2002 15.0665C14.2002 14.7997 13.8002 14.2665 13.8002 13.333C13.8002 12.3995 14.4669 11.7997 15.8002 11.7997C17.0003 11.7997 17.667 12.1997 18.0003 13.1997C18.067 13.3997 18.267 13.533 18.467 13.533H19.5336C19.8003 13.533 20.0004 13.333 20.0004 13.0664V12.9997C19.7336 11.5329 18.5336 10.3996 17.0003 10.2663V8.66627C17.0003 8.39954 16.8003 8.19953 16.467 8.13281H15.4669C15.2002 8.13281 15.0002 8.33282 14.9335 8.66627V10.1996C12.9334 10.4663 11.6668 11.7997 11.6668 13.4664C11.6668 15.6665 13.0001 16.5331 15.8002 16.8665C17.667 17.1998 18.267 17.5998 18.267 18.6666C18.267 19.7333 17.3335 20.4667 16.0669 20.4667C14.3334 20.4667 13.7334 19.7332 13.5334 18.7332C13.4669 18.4666 13.2669 18.3331 13.0668 18.3331H11.9334C11.6668 18.3331 11.4668 18.5331 11.4668 18.7999V18.8666C11.7334 20.5332 12.8001 21.7333 15.0002 22.0667V23.6668C15.0002 23.9333 15.2002 24.1333 15.5335 24.2001H16.5335C16.8002 24.2001 17.0003 24 17.067 23.6668V22.0667C19.067 21.7333 20.4004 20.3332 20.4004 18.5331Z" fill="white"/>
<path id="Vector_3" d="M12.5996 25.5337C7.39946 23.6671 4.73265 17.8669 6.66615 12.7333C7.66619 9.93323 9.86626 7.79988 12.5996 6.79985C12.8664 6.66657 12.9996 6.46656 12.9996 6.13311V5.1998C12.9996 4.93307 12.8664 4.73307 12.5996 4.6665C12.5329 4.6665 12.3996 4.6665 12.3329 4.73307C5.99941 6.73313 2.53258 13.4668 4.53264 19.8003C5.73268 23.5337 8.5995 26.4005 12.3329 27.6005C12.5996 27.7338 12.8664 27.6005 12.9329 27.3338C12.9996 27.2672 12.9996 27.2005 12.9996 27.0672V26.1338C12.9996 25.9338 12.7996 25.6672 12.5996 25.5337ZM19.6666 4.73307C19.3998 4.59978 19.1331 4.73307 19.0666 4.99979C18.9998 5.06652 18.9998 5.13308 18.9998 5.26652V6.19983C18.9998 6.46656 19.1998 6.73313 19.3998 6.86658C24.6 8.7332 27.2668 14.5334 25.3333 19.667C24.3333 22.4671 22.1332 24.6004 19.3998 25.6005C19.1331 25.7337 18.9998 25.9338 18.9998 26.2672V27.2005C18.9998 27.4672 19.1331 27.6672 19.3998 27.7338C19.4666 27.7338 19.5999 27.7338 19.6666 27.6672C26.0001 25.6672 29.4669 18.9335 27.4668 12.6C26.2668 8.79992 23.3333 5.9331 19.6666 4.73307Z" fill="white"/>
</g>
<defs>
<clipPath id="clip0_1246_91291">
<rect width="32.001" height="32.001" fill="white" transform="translate(0 -0.000488281)"/>
</clipPath>
</defs>
</svg>
