<svg width="25" height="24" viewBox="0 0 25 24" fill="none" xmlns="http://www.w3.org/2000/svg">
<g id="user-circle">
<path id="Icon" d="M5.98231 19.4384C6.59064 18.0052 8.01094 17 9.66602 17H15.666C17.3211 17 18.7414 18.0052 19.3497 19.4384M16.666 9.5C16.666 11.7091 14.8752 13.5 12.666 13.5C10.4569 13.5 8.66602 11.7091 8.66602 9.5C8.66602 7.29086 10.4569 5.5 12.666 5.5C14.8752 5.5 16.666 7.29086 16.666 9.5ZM22.666 12C22.666 17.5228 18.1889 22 12.666 22C7.14317 22 2.66602 17.5228 2.66602 12C2.66602 6.47715 7.14317 2 12.666 2C18.1889 2 22.666 6.47715 22.666 12Z" stroke="#0E9384" stroke-width="2" stroke-linecap="round" stroke-linejoin="round"/>
</g>
</svg>
