<svg width="25" height="24" viewBox="0 0 25 24" fill="none" xmlns="http://www.w3.org/2000/svg">
<path d="M5.98036 19.4384C6.58868 18.0052 8.00898 17 9.66406 17H15.6641C17.3191 17 18.7394 18.0052 19.3478 19.4384M16.6641 9.5C16.6641 11.7091 14.8732 13.5 12.6641 13.5C10.4549 13.5 8.66406 11.7091 8.66406 9.5C8.66406 7.29086 10.4549 5.5 12.6641 5.5C14.8732 5.5 16.6641 7.29086 16.6641 9.5ZM22.6641 12C22.6641 17.5228 18.1869 22 12.6641 22C7.14121 22 2.66406 17.5228 2.66406 12C2.66406 6.47715 7.14121 2 12.6641 2C18.1869 2 22.6641 6.47715 22.6641 12Z" stroke="#2ED3B7" stroke-width="2" stroke-linecap="round" stroke-linejoin="round"/>
</svg>
